<svg width="19" height="11" viewBox="0 0 19 11" fill="none" xmlns="http://www.w3.org/2000/svg">
<path fill-rule="evenodd" clip-rule="evenodd" d="M2.00012 1.56433e-10C2.3527 0.00072677 2.69842 0.0975284 3.00012 0.28L8.30012 3.34C8.55646 3.48851 8.77539 3.69376 8.94012 3.94V2.01C8.94085 1.29584 9.32234 0.636252 9.941 0.279487C10.5597 -0.0772786 11.3216 -0.077083 11.9401 0.28L17.2401 3.34C17.8569 3.6978 18.2366 4.35693 18.2366 5.07C18.2366 5.78307 17.8569 6.4422 17.2401 6.8L11.9401 9.86C11.3216 10.2171 10.5597 10.2173 9.941 9.86051C9.32234 9.50375 8.94085 8.84416 8.94012 8.13V6.2C8.77539 6.44624 8.55646 6.65149 8.30012 6.8L3.00012 9.86C2.69842 10.0425 2.3527 10.1393 2.00012 10.14C0.895546 10.14 0.000116348 9.24457 0.000116348 8.14V2.01C-0.0025444 1.47784 0.206993 0.966556 0.582355 0.589318C0.957718 0.212079 1.46795 -6.65201e-06 2.00012 1.56433e-10ZM10.8801 8.13H10.9401L16.2701 5.12V5.02L10.9601 1.96C10.9601 1.96 10.9001 1.96 10.9001 2.02L10.8801 8.13ZM7.25012 5.07L1.95012 8.13L1.90012 1.97C1.89971 1.94041 1.92093 1.91493 1.95012 1.91L7.25012 4.97V5.07Z" fill="#0D0201"/>
</svg>
