<svg width="24" height="24" viewBox="0 0 24 24" fill="none" xmlns="http://www.w3.org/2000/svg">
<path fill-rule="evenodd" clip-rule="evenodd" d="M12.4068 2C16.8267 2.00001 20.4066 5.18982 20.4068 9.13965V13.96C20.4068 14.5446 20.6628 15.1005 21.107 15.4805C22.6165 16.8305 21.5466 19.1299 19.4068 19.1299H15.607C15.1222 20.4803 13.8416 21.3808 12.4068 21.3809C10.972 21.3809 9.69148 20.4803 9.20664 19.1299H5.40684C3.26699 19.1299 2.19712 16.8305 3.70664 15.4805C4.15092 15.1005 4.40688 14.5446 4.40684 13.96V9.13965C4.40705 5.18981 7.98697 2 12.4068 2ZM10.8863 19.1299C11.2502 19.6009 11.8116 19.8776 12.4068 19.8799C12.989 19.8699 13.534 19.5934 13.8863 19.1299H10.8863ZM12.4166 3.5C8.83683 3.5001 5.91682 6.02987 5.9166 9.13965V13.96C5.90564 14.9696 5.46985 15.9275 4.71641 16.5996C4.53591 16.7139 4.46102 16.9399 4.53672 17.1396C4.69702 17.4676 5.04327 17.6628 5.40684 17.6299H19.4166C19.7802 17.6628 20.1264 17.4676 20.2867 17.1396C20.3644 16.9422 20.2937 16.7169 20.1168 16.5996C19.3635 15.9275 18.9276 14.9695 18.9166 13.96V9.13965C18.9164 6.02981 15.9965 3.5 12.4166 3.5Z" fill="#DD2912"/>
</svg>
