<svg width="18" height="18" viewBox="0 0 18 18" fill="none" xmlns="http://www.w3.org/2000/svg">
<path d="M6.5459 0.803223C8.00641 -0.267707 9.99359 -0.267707 11.4541 0.803223L16.4561 4.49854C17.4199 5.19622 17.9934 6.31162 18 7.50146V14.1899C17.9399 16.2674 16.2664 17.921 14.2119 17.979H3.79785C1.73939 17.926 0.060087 16.2713 0 14.1899V7.50146C0.00659257 6.31162 0.580117 5.19622 1.54395 4.49854L6.5459 0.803223ZM4.7373 12.5513C4.34494 12.5513 4.02644 12.8689 4.02637 13.2612C4.02637 13.6536 4.34489 13.9722 4.7373 13.9722H13.2627C13.6551 13.9722 13.9736 13.6536 13.9736 13.2612C13.9736 12.8689 13.6551 12.5513 13.2627 12.5513H4.7373Z" fill="#DD2912"/>
</svg>
