<svg width="20" height="20" viewBox="0 0 20 20" fill="none" xmlns="http://www.w3.org/2000/svg">
<path fill-rule="evenodd" clip-rule="evenodd" d="M7.26953 0.890481C8.89589 -0.296827 11.1041 -0.296827 12.7305 0.890481L18.29 4.99986C19.3566 5.77506 19.9913 7.01145 20 8.32993V15.7704C19.9418 18.0888 18.0757 19.9374 15.7832 19.9999H4.2168C1.92434 19.9374 0.0581618 18.0888 0 15.7704V8.34068C0.00610336 7.01632 0.645169 5.77399 1.71973 4.99986L7.26953 0.890481ZM11.8398 2.10044C10.7438 1.30007 9.25623 1.30007 8.16016 2.10044L2.61035 6.20005C1.91852 6.69405 1.50534 7.4906 1.5 8.34068V15.7704C1.56504 17.3328 2.87742 18.5506 4.44043 18.4999H15.5596C17.1247 18.5561 18.4403 17.3353 18.5 15.7704V8.32993C18.4947 7.48544 18.0808 6.69614 17.3896 6.21079L11.8398 2.10044ZM14.5 13.7508C14.9141 13.7508 15.2497 14.0859 15.25 14.4999C15.25 14.9141 14.9142 15.2499 14.5 15.2499H5.5C5.08579 15.2499 4.75 14.9141 4.75 14.4999C4.75026 14.0859 5.08595 13.7508 5.5 13.7508H14.5Z" fill="#595857"/>
</svg>
