<svg width="19" height="20" viewBox="0 0 19 20" fill="none" xmlns="http://www.w3.org/2000/svg">
<path fill-rule="evenodd" clip-rule="evenodd" d="M9.40647 0C13.8263 1.47586e-05 17.4063 3.18982 17.4065 7.13965V11.96C17.4064 12.5446 17.6624 13.1005 18.1067 13.4805C19.6161 14.8305 18.5463 17.1299 16.4065 17.1299H12.6067C12.1218 18.4803 10.8413 19.3808 9.40647 19.3809C7.97168 19.3809 6.69111 18.4803 6.20628 17.1299H2.40647C0.266624 17.1299 -0.803247 14.8305 0.706276 13.4805C1.15055 13.1005 1.40651 12.5446 1.40647 11.96V7.13965C1.40668 3.18981 4.9866 0 9.40647 0ZM7.88596 17.1299C8.24987 17.6009 8.81126 17.8776 9.40647 17.8799C9.98859 17.8699 10.5336 17.5934 10.886 17.1299H7.88596ZM9.41624 1.5C5.83646 1.5001 2.91646 4.02987 2.91624 7.13965V11.96C2.90527 12.9696 2.46948 13.9275 1.71604 14.5996C1.53554 14.7139 1.46066 14.9399 1.53635 15.1396C1.69665 15.4676 2.04291 15.6628 2.40647 15.6299H16.4162C16.7798 15.6628 17.1261 15.4676 17.2864 15.1396C17.364 14.9422 17.2933 14.7169 17.1164 14.5996C16.3631 13.9275 15.9272 12.9695 15.9162 11.96V7.13965C15.916 4.02981 12.9961 1.5 9.41624 1.5Z" fill="#595857"/>
</svg>
