<svg width="19" height="20" viewBox="0 0 19 20" fill="none" xmlns="http://www.w3.org/2000/svg">
<path fill-rule="evenodd" clip-rule="evenodd" d="M17.4066 11.97C17.4094 12.5511 17.6649 13.1023 18.1066 13.48C19.6166 14.83 18.5466 17.14 16.4066 17.14H12.6066C12.114 18.4844 10.8383 19.3814 9.40657 19.39C7.97017 19.3962 6.68678 18.4938 6.20657 17.14H2.40657C0.266568 17.14 -0.803432 14.83 0.706568 13.48C1.1482 13.1023 1.40369 12.5511 1.40657 11.97V7.14C1.40657 3.2 4.98657 0 9.40657 0C13.8266 0 17.4066 3.2 17.4066 7.14V11.97ZM7.88657 17.14C8.25048 17.611 8.81136 17.8878 9.40657 17.89C9.98767 17.8756 10.5314 17.6001 10.8866 17.14H7.88657Z" fill="#DD2912"/>
</svg>
