<svg width="24" height="24" viewBox="0 0 24 24" fill="none" xmlns="http://www.w3.org/2000/svg">
<path d="M14.8007 8.94023L9.03074 14.7102C8.73829 15.003 8.73829 15.4774 9.03074 15.7702C9.17063 15.9119 9.36168 15.9912 9.56074 15.9902C9.76003 15.9923 9.95152 15.9128 10.0907 15.7702L15.8607 10.0002C16.0614 9.81326 16.144 9.53167 16.0761 9.26594C16.0083 9.00021 15.8008 8.79271 15.535 8.72484C15.2693 8.65698 14.9877 8.73958 14.8007 8.94023Z" fill="#0D0201"/>
<path d="M10.6007 10.1002C10.6007 10.5144 10.265 10.8502 9.85074 10.8502C9.43653 10.8502 9.10074 10.5144 9.10074 10.1002C9.10074 9.68602 9.43653 9.35023 9.85074 9.35023C10.265 9.35023 10.6007 9.68602 10.6007 10.1002Z" fill="#0D0201"/>
<path d="M15.8807 14.6102C15.8807 15.0244 15.545 15.3602 15.1307 15.3602C14.7165 15.3602 14.3807 15.0244 14.3807 14.6102C14.3807 14.196 14.7165 13.8602 15.1307 13.8602C15.545 13.8602 15.8807 14.196 15.8807 14.6102Z" fill="#0D0201"/>
<path fill-rule="evenodd" clip-rule="evenodd" d="M22.6395 8.22158C22.9698 9.07675 22.7532 10.0466 22.0906 10.6801C21.611 11.1089 21.3367 11.7218 21.3367 12.3651C21.3367 13.0085 21.611 13.6214 22.0906 14.0501C22.7826 14.6788 23.0183 15.6675 22.6845 16.5407C22.3506 17.414 21.5155 17.9933 20.5806 18.0001H20.3306C19.7099 18.0048 19.1179 18.2625 18.6913 18.7135C18.2648 19.1646 18.0407 19.7701 18.0706 20.3901C18.1038 21.0135 17.8777 21.6229 17.4458 22.0737C17.014 22.5244 16.4149 22.7765 15.7906 22.7701C15.1552 22.7704 14.5504 22.4971 14.1306 22.0201C13.7002 21.5433 13.088 21.2712 12.4456 21.2712C11.8033 21.2712 11.191 21.5433 10.7606 22.0201C10.3409 22.4971 9.73606 22.7704 9.10064 22.7701C8.47272 22.7769 7.87029 22.5221 7.43779 22.0668C7.00528 21.6116 6.7817 20.9969 6.82064 20.3701C6.8478 19.7518 6.62239 19.1489 6.19618 18.7001C5.76997 18.2512 5.17958 17.995 4.56064 17.9901H4.31064C3.41628 17.9477 2.63043 17.3835 2.30425 16.5497C1.97806 15.7158 2.17248 14.7682 2.80064 14.1301C3.27695 13.7015 3.54895 13.0909 3.54895 12.4501C3.54895 11.8094 3.27695 11.1987 2.80064 10.7701C2.06935 10.1492 1.80737 9.13558 2.14618 8.23806C2.485 7.34054 3.35145 6.75291 4.31064 6.77012H4.56064C5.18785 6.76873 5.78654 6.50789 6.21464 6.04948C6.64273 5.59108 6.86208 4.97597 6.82064 4.35013C6.79877 3.73351 7.02995 3.13476 7.46054 2.69285C7.89112 2.25093 8.48366 2.00428 9.10064 2.01012C9.73851 2.0084 10.3451 2.28613 10.7606 2.77012C11.1953 3.24284 11.8085 3.51133 12.4506 3.51013C13.0893 3.50853 13.6983 3.24028 14.1306 2.77012C14.5442 2.28241 15.1511 2.00089 15.7906 2.00012C16.4167 1.99355 17.0175 2.24699 17.4496 2.70001C17.8818 3.15304 18.1067 3.76506 18.0706 4.39013C18.0406 5.00926 18.265 5.61374 18.6919 6.06323C19.1187 6.51273 19.7108 6.76812 20.3306 6.77012H20.5806C21.497 6.79383 22.3093 7.36642 22.6395 8.22158ZM20.9906 15.8801C21.0731 15.706 21.0232 15.4979 20.8706 15.3801V15.3201C20.0326 14.5477 19.5558 13.4599 19.5558 12.3201C19.5558 11.1804 20.0326 10.0926 20.8706 9.32013C21.0232 9.20237 21.0731 8.99428 20.9906 8.82013C20.9332 8.6434 20.7664 8.52544 20.5806 8.53013H20.3306C19.215 8.52791 18.149 8.06897 17.3806 7.26013C16.619 6.45144 16.2153 5.37005 16.2606 4.26013C16.2774 4.14077 16.2409 4.02008 16.1606 3.93012C16.0638 3.82921 15.9305 3.77154 15.7906 3.77013C15.6481 3.75692 15.5086 3.81722 15.4206 3.93012C14.6526 4.7775 13.5642 5.26365 12.4206 5.27012C11.2773 5.26242 10.1894 4.77648 9.42064 3.93012C9.34315 3.83176 9.22582 3.77309 9.10064 3.77013C8.96081 3.77154 8.82744 3.82921 8.73064 3.93012C8.65042 4.02008 8.61384 4.14077 8.63064 4.26013C8.69671 5.38142 8.29759 6.48036 7.52734 7.29791C6.7571 8.11547 5.68388 8.57932 4.56064 8.58012H4.34064C4.14498 8.56507 3.96395 8.68438 3.90064 8.87012C3.81817 9.04428 3.86811 9.25237 4.02064 9.37012C4.86598 10.1396 5.35171 11.227 5.36064 12.3701C5.35416 13.5137 4.86801 14.6021 4.02064 15.3701C3.86811 15.4879 3.81817 15.696 3.90064 15.8701C3.95142 16.053 4.12101 16.177 4.31064 16.1701H4.56064C5.67563 16.1744 6.74056 16.6337 7.50892 17.4417C8.27727 18.2497 8.68244 19.3363 8.63064 20.4501C8.61257 20.5665 8.64951 20.6847 8.73064 20.7701C8.83868 20.8779 8.98858 20.9327 9.14064 20.9201C9.26358 20.917 9.37962 20.8626 9.46064 20.7701C10.2308 19.9098 11.3309 19.4181 12.4856 19.4181C13.6404 19.4181 14.7405 19.9098 15.5106 20.7701C15.5804 20.857 15.6804 20.9142 15.7906 20.9301C15.9305 20.9287 16.0638 20.871 16.1606 20.7701C16.2418 20.6847 16.2787 20.5665 16.2606 20.4501C16.2198 19.3409 16.6229 18.2612 17.3806 17.4501C18.1517 16.6452 19.216 16.187 20.3306 16.1801H20.5506C20.7501 16.1978 20.9342 16.0722 20.9906 15.8801Z" fill="#0D0201"/>
</svg>
