<svg width="316" height="175" viewBox="0 0 316 175" fill="none" xmlns="http://www.w3.org/2000/svg">
<path d="M158 175C245.261 175 316 171.611 316 167.429C316 163.248 245.261 159.859 158 159.859C70.739 159.859 0 163.248 0 167.429C0 171.611 70.739 175 158 175Z" fill="#F5F5F5"/>
<path d="M191.406 115.726H169.288C159.802 115.726 152.118 125.939 152.118 138.54C152.118 151.14 159.802 161.353 169.288 161.353H191.406C200.893 161.353 208.584 151.14 208.584 138.54C208.584 125.939 200.878 115.726 191.406 115.726Z" fill="#FFC269"/>
<path opacity="0.2" d="M191.406 115.726H169.288C159.802 115.726 152.118 125.939 152.118 138.54C152.118 151.14 159.802 161.353 169.288 161.353H191.406C200.893 161.353 208.584 151.14 208.584 138.54C208.584 125.939 200.878 115.726 191.406 115.726Z" fill="#0D0201"/>
<path d="M91.5451 115.726H69.4271C59.9408 115.726 52.257 125.939 52.257 138.54C52.257 151.14 59.9408 161.353 69.4271 161.353H91.5451C101.031 161.353 108.722 151.14 108.722 138.54C108.722 125.939 101.031 115.726 91.5451 115.726Z" fill="#FFC269"/>
<path opacity="0.2" d="M91.5451 115.726H69.4271C59.9408 115.726 52.257 125.939 52.257 138.54C52.257 151.14 59.9408 161.353 69.4271 161.353H91.5451C101.031 161.353 108.722 151.14 108.722 138.54C108.722 125.939 101.031 115.726 91.5451 115.726Z" fill="#0D0201"/>
<path d="M302.65 98.4164L307.677 101.952C308.846 102.777 309.717 103.85 310.194 105.054C310.67 106.258 310.733 107.546 310.377 108.777L309.228 112.755L302.65 98.4164Z" fill="#FFC269"/>
<path d="M311.791 121.56C310.922 113.777 308.44 106.174 304.452 99.0764L302.714 96.0177H260.855L282.564 147.291C290.201 145.726 297.277 142.696 303.21 138.451L303.713 138.097C306.557 136.062 308.773 133.502 310.177 130.627C311.581 127.752 312.135 124.645 311.791 121.56Z" fill="#FFC269"/>
<path opacity="0.5" d="M311.791 121.56C310.922 113.777 308.44 106.174 304.452 99.0764L302.714 96.0177H260.855L282.564 147.291C290.201 145.726 297.277 142.696 303.21 138.451L303.713 138.097C306.557 136.062 308.773 133.502 310.177 130.627C311.581 127.752 312.135 124.645 311.791 121.56Z" fill="#FFF8F7"/>
<path d="M256.209 161.353C246.723 161.353 239.032 151.14 239.032 138.54C239.032 125.939 246.723 115.726 256.209 115.726H278.248V161.353H256.209Z" fill="#FFC269"/>
<path d="M278.327 161.353C287.814 161.353 295.504 151.139 295.504 138.54C295.504 125.94 287.814 115.726 278.327 115.726C268.84 115.726 261.15 125.94 261.15 138.54C261.15 151.139 268.84 161.353 278.327 161.353Z" fill="#FFC269"/>
<path opacity="0.2" d="M278.327 152.967C284.982 152.967 290.377 146.508 290.377 138.54C290.377 130.572 284.982 124.112 278.327 124.112C271.672 124.112 266.277 130.572 266.277 138.54C266.277 146.508 271.672 152.967 278.327 152.967Z" fill="#0D0201"/>
<path d="M130.826 147.291L89.52 92.8882C89.52 92.8882 122.202 65.778 193.582 65.778C255.383 65.778 292.395 82.5274 302.736 96.0236L278.248 115.732C254.55 115.732 254.68 136.359 251.427 145.052C251.18 145.706 250.682 146.278 250.009 146.683C249.335 147.087 248.52 147.303 247.685 147.297H130.826" fill="#FFC269"/>
<path opacity="0.5" d="M130.826 147.291L89.52 92.8882C89.52 92.8882 122.202 65.778 193.582 65.778C255.383 65.778 292.395 82.5274 302.736 96.0236L278.248 115.732C254.55 115.732 254.68 136.359 251.427 145.052C251.18 145.706 250.682 146.278 250.009 146.683C249.335 147.087 248.52 147.303 247.685 147.297H130.826" fill="#FFF8F7"/>
<path d="M156.362 161.353C146.876 161.353 139.185 151.14 139.185 138.54C139.185 125.939 146.883 115.726 156.362 115.726H178.401V161.353H156.362Z" fill="#FFC269"/>
<path d="M178.48 161.353C187.967 161.353 195.658 151.139 195.658 138.54C195.658 125.94 187.967 115.726 178.48 115.726C168.994 115.726 161.303 125.94 161.303 138.54C161.303 151.139 168.994 161.353 178.48 161.353Z" fill="#FFC269"/>
<path opacity="0.2" d="M178.48 152.967C185.135 152.967 190.53 146.508 190.53 138.54C190.53 130.572 185.135 124.112 178.48 124.112C171.825 124.112 166.43 130.572 166.43 138.54C166.43 146.508 171.825 152.967 178.48 152.967Z" fill="#0D0201"/>
<path d="M148.24 142.801C150.345 132.605 162.732 115.726 178.401 115.726L193.561 92.8882H89.52C82.8846 92.8882 51.862 102.088 40.566 111.359C32.6667 117.841 31.8409 124.377 30.9074 140.997C30.7206 144.386 34.5195 147.333 39.0867 147.333C77.4772 147.333 123.939 147.456 140.851 147.498C144.585 147.48 147.68 145.529 148.24 142.801Z" fill="#FFC269"/>
<path opacity="0.5" d="M148.24 142.801C150.345 132.605 162.732 115.726 178.401 115.726L193.561 92.8882H89.52C82.8846 92.8882 51.862 102.088 40.566 111.359C32.6667 117.841 31.8409 124.377 30.9074 140.997C30.7206 144.386 34.5195 147.333 39.0867 147.333C77.4772 147.333 123.939 147.456 140.851 147.498C144.585 147.48 147.68 145.529 148.24 142.801Z" fill="#FFF8F7"/>
<path opacity="0.3" d="M193.561 65.7722C122.618 65.7722 90.2454 92.4698 89.5129 92.8824H161.282C161.282 92.8824 192.161 70.9879 212.605 66.3261C206.559 65.9647 200.211 65.78 193.561 65.7722Z" fill="#FFC269"/>
<path opacity="0.7" d="M104.816 116.191C114.661 113.127 144.399 104.528 152.506 106.762C160.614 108.995 140.98 116.975 136.033 118.036C131.085 119.097 127.846 116.969 120.442 119.91C113.039 122.851 92.8882 119.892 104.816 116.191Z" fill="#FFC269"/>
<path opacity="0.2" d="M226.781 147.598C226.704 147.598 226.63 147.579 226.566 147.545C226.483 147.498 226.427 147.427 226.408 147.347C226.389 147.266 226.41 147.183 226.465 147.115C226.616 146.938 241.165 128.957 241.165 92.8942C241.165 92.8114 241.205 92.7319 241.276 92.6733C241.348 92.6147 241.444 92.5818 241.545 92.5818C241.595 92.5818 241.644 92.5899 241.69 92.6057C241.736 92.6215 241.777 92.6446 241.812 92.6737C241.847 92.7028 241.874 92.7372 241.892 92.7751C241.911 92.813 241.92 92.8535 241.919 92.8942C241.919 129.175 227.241 147.291 227.09 147.468C227.055 147.509 227.009 147.542 226.955 147.565C226.901 147.588 226.841 147.599 226.781 147.598Z" fill="#FFC269"/>
<path opacity="0.2" d="M69.1399 119.763H69.0609L49.2912 116.026C49.2376 116.023 49.1857 116.009 49.139 115.987C49.0922 115.966 49.0518 115.936 49.0203 115.9C48.9889 115.864 48.9673 115.823 48.9569 115.78C48.9465 115.737 48.9476 115.692 48.9601 115.649C48.9727 115.607 48.9964 115.566 49.0295 115.532C49.0627 115.497 49.1047 115.469 49.1524 115.448C49.2002 115.428 49.2528 115.417 49.3064 115.415C49.3601 115.413 49.4137 115.42 49.4635 115.437L69.1614 119.15L101.742 116.097C101.795 116.08 101.853 116.073 101.909 116.077C101.966 116.081 102.021 116.096 102.07 116.12C102.119 116.144 102.16 116.177 102.191 116.216C102.222 116.255 102.242 116.3 102.249 116.346C102.255 116.392 102.249 116.44 102.23 116.484C102.212 116.528 102.181 116.568 102.14 116.601C102.1 116.634 102.051 116.658 101.996 116.673C101.942 116.688 101.885 116.693 101.829 116.686L69.183 119.763H69.1399Z" fill="#FFC269"/>
<path opacity="0.2" d="M278.248 116.038C278.197 116.039 278.147 116.031 278.1 116.015C278.053 115.998 278.01 115.974 277.975 115.944C277.94 115.915 277.912 115.88 277.893 115.842C277.874 115.804 277.864 115.764 277.864 115.723C277.864 115.682 277.874 115.641 277.893 115.603C277.912 115.565 277.94 115.531 277.975 115.502C284.877 109.944 288.56 96.9666 288.56 89.7352C288.56 89.6945 288.568 89.654 288.587 89.6161C288.605 89.5783 288.632 89.5438 288.667 89.5147C288.702 89.4856 288.744 89.4625 288.789 89.4467C288.835 89.431 288.884 89.4228 288.934 89.4229C289.035 89.4229 289.132 89.4558 289.203 89.5143C289.274 89.5729 289.314 89.6524 289.314 89.7352C289.314 97.0785 285.559 110.274 278.507 115.95C278.437 116.004 278.345 116.035 278.248 116.038Z" fill="#FFC269"/>
<path d="M222.616 99.0883H232.461C232.828 99.0867 233.18 98.9664 233.439 98.7534C233.699 98.5404 233.845 98.252 233.847 97.9508C233.845 97.6496 233.699 97.3612 233.439 97.1482C233.18 96.9352 232.828 96.8149 232.461 96.8134H222.616C222.249 96.8149 221.897 96.9352 221.638 97.1482C221.378 97.3612 221.232 97.6496 221.23 97.9508C221.232 98.252 221.378 98.5404 221.638 98.7534C221.897 98.9664 222.249 99.0867 222.616 99.0883Z" fill="#FFC269"/>
<path d="M265.811 99.0883H275.649C276.017 99.0883 276.37 98.9686 276.631 98.7555C276.892 98.5423 277.04 98.253 277.042 97.9508C277.04 97.6486 276.892 97.3593 276.631 97.1461C276.37 96.933 276.017 96.8134 275.649 96.8134H265.811C265.444 96.8149 265.092 96.9352 264.833 97.1482C264.573 97.3612 264.427 97.6496 264.425 97.9508C264.427 98.252 264.573 98.5404 264.833 98.7534C265.092 98.9664 265.444 99.0867 265.811 99.0883Z" fill="#FFC269"/>
<path opacity="0.7" d="M48.6737 116.492C46.6487 115.478 43.3238 113.875 39.5608 112.231C37.502 114.017 35.8527 116.093 34.692 118.36C36.1809 118.642 37.5682 119.208 38.7422 120.01C43.5392 123.04 56.4007 120.358 48.6737 116.492Z" fill="#FFC269"/>
<path opacity="0.3" d="M173.999 92.8883H274.306C279.434 92.8891 284.475 91.803 288.941 89.7352C288.941 89.7352 272.712 77.6299 240.03 72.4142C226.601 70.2689 213.869 69.4379 209.955 69.6442C200.62 73.6636 186.322 82.1738 173.999 92.8883Z" fill="#FFC269"/>
<path d="M113.85 143.514H42.5121C42.128 143.515 41.7519 143.425 41.4289 143.254C41.106 143.083 40.8501 142.84 40.6921 142.553C40.5342 142.265 40.481 141.947 40.5388 141.635C40.5967 141.323 40.7633 141.032 41.0184 140.797L42.864 139.088C43.0519 138.915 43.2821 138.777 43.5395 138.683C43.7969 138.588 44.0757 138.539 44.3576 138.539H111.99C112.271 138.54 112.548 138.588 112.805 138.683C113.061 138.777 113.29 138.915 113.476 139.088L115.322 140.797C115.576 141.031 115.742 141.321 115.801 141.631C115.859 141.941 115.808 142.258 115.653 142.544C115.497 142.831 115.245 143.075 114.925 143.247C114.605 143.419 114.232 143.511 113.85 143.514Z" fill="#FFC269"/>
<path d="M300.919 116.286L296.431 116.993V107.003L300.919 107.711C301.53 107.811 301.989 108.483 301.989 109.284V114.712C301.996 115.508 301.53 116.185 300.919 116.286Z" fill="#FFC269"/>
<path d="M210.951 171.008C206.869 171.008 204.657 170.225 204.657 168.811C204.657 167.606 206.396 166.716 209.979 166.097C214.791 165.402 219.682 165.093 224.575 165.176H290.061C294.045 165.176 297.032 164.28 299.212 162.431C305.114 157.438 303.791 146.192 302.828 137.987C302.502 135.197 302.191 132.559 302.191 130.508C302.249 127.774 302.576 125.048 303.171 122.354C303.783 119.166 304.265 116.673 302.951 115.468C302.085 114.692 300.281 114.319 297.424 114.319V112.319C301.13 112.319 303.506 112.906 304.902 114.162C307 116.055 306.436 118.958 305.718 122.644C305.138 125.242 304.816 127.871 304.755 130.508C304.755 132.471 305.057 135.058 305.383 137.804C306.444 146.861 307.767 158.133 301.106 163.781C298.444 166.028 294.722 167.17 290.045 167.17H224.575C214.004 167.17 209.302 168.13 207.743 168.729C208.789 168.941 209.869 169.037 210.951 169.013V171.008Z" fill="#FFC269"/>
<path d="M297.122 110.295V117.378C298.211 117.378 299.257 117.005 300.027 116.341C300.798 115.677 301.231 114.776 301.231 113.836C301.231 112.897 300.798 111.996 300.027 111.332C299.257 110.668 298.211 110.295 297.122 110.295Z" fill="#FFC269"/>
<path d="M262.727 20.995H228.485V169.183H262.727V20.995Z" fill="#263238"/>
<path d="M272.13 19.1705H231.418V20.995H272.13V19.1705Z" fill="#263238"/>
<path opacity="0.4" d="M272.13 19.1705H262.735V20.995H272.13V19.1705Z" fill="#0D0201"/>
<path d="M251.253 34.1237H245.492L250.528 28.3865H244.196L239.967 36.4996H245.223L242.02 43.8266L251.253 34.1237Z" fill="#FFF8F7"/>
<path opacity="0.5" d="M250.697 118.293C253.507 116.27 253.507 112.99 250.697 110.968C247.887 108.945 243.331 108.945 240.521 110.968C237.711 112.99 237.711 116.27 240.521 118.293C243.331 120.316 247.887 120.316 250.697 118.293Z" fill="#FFC269"/>
<path d="M211.308 171.008C210.93 171.008 210.568 170.909 210.3 170.734C210.033 170.559 209.883 170.321 209.883 170.074C209.883 169.826 210.033 169.588 210.3 169.413C210.568 169.238 210.93 169.14 211.308 169.14C215.9 169.14 219.067 168.395 220.998 166.864C225.437 163.346 223.226 155.779 220.89 147.763C219.338 142.442 217.732 136.939 217.732 131.801C217.732 119.895 227.53 113.333 245.321 113.333C245.518 113.323 245.716 113.34 245.903 113.382C246.091 113.425 246.262 113.492 246.408 113.58C246.553 113.668 246.669 113.775 246.748 113.894C246.828 114.012 246.869 114.141 246.869 114.27C246.869 114.4 246.828 114.528 246.748 114.647C246.669 114.766 246.553 114.873 246.408 114.961C246.262 115.049 246.091 115.116 245.903 115.159C245.716 115.201 245.518 115.218 245.321 115.207C234.034 115.207 220.583 118.086 220.583 131.801C220.583 136.738 222.162 142.153 223.686 147.391C226.158 155.85 228.486 163.837 223.199 168.028C220.691 170.038 216.803 171.008 211.308 171.008Z" fill="#FFC269"/>
<path opacity="0.5" d="M258.465 67.9956H232.763V105.387H258.465V67.9956Z" fill="#FFC269"/>
<path opacity="0.5" d="M232.755 67.9956V105.387L241.963 73.199L232.755 67.9956Z" fill="#FFC269"/>
<path d="M253.583 80.6023L254.105 78.7779H247.089L246.567 80.6023H243.854L238.883 97.9783H251.391L256.362 80.6023H253.583Z" fill="#FFC269"/>
<path opacity="0.4" d="M252.932 86.7619L250.373 95.7139C250.286 96.0208 250.055 96.2966 249.717 96.4945C249.38 96.6923 248.958 96.8 248.523 96.7991H242.281C242.111 96.8001 241.944 96.7736 241.79 96.7217C241.637 96.6697 241.502 96.5937 241.394 96.4991C241.287 96.4045 241.211 96.2938 241.171 96.1752C241.131 96.0565 241.129 95.933 241.164 95.8136L243.723 86.8617C243.81 86.5547 244.041 86.2789 244.379 86.0811C244.716 85.8832 245.138 85.7755 245.573 85.7764H251.815C251.985 85.7755 252.152 85.8019 252.306 85.8539C252.459 85.9058 252.594 85.9819 252.702 86.0765C252.809 86.171 252.885 86.2817 252.925 86.4004C252.965 86.519 252.967 86.6426 252.932 86.7619Z" fill="#FFF8F7"/>
<path opacity="0.4" d="M232.755 67.9956L258.456 67.9898V73.199H241.963L232.755 67.9956Z" fill="#263238"/>
<path d="M262.727 169.183H275.048V20.995H262.727V169.183Z" fill="#263238"/>
<path opacity="0.4" d="M262.727 169.183H275.048V20.995H262.727V169.183Z" fill="#0D0201"/>
</svg>
