<svg width="316" height="175" viewBox="0 0 316 175" fill="none" xmlns="http://www.w3.org/2000/svg">
<path d="M316 174.653C316 174.725 246.943 174.787 161.774 174.787C76.6062 174.787 7.53033 174.72 7.53033 174.653C7.53033 174.586 76.5735 174.519 161.774 174.519C246.976 174.519 316 174.576 316 174.653Z" fill="#263238"/>
<path d="M261.766 167.128C266.047 166.278 270.379 165.408 274.347 163.435C275.197 163.083 275.952 162.498 276.542 161.735C277.078 160.932 277.218 159.727 276.635 158.964C276.135 158.31 275.276 158.161 274.506 158.218C272.949 158.406 271.468 159.057 270.22 160.103C268.946 161.092 267.821 162.292 266.621 163.394C265.029 164.849 263.309 166.125 261.485 167.2" fill="#EBEBEB"/>
<path d="M189.282 93.888C189.24 93.8959 189.197 93.8959 189.156 93.888H188.791L187.391 93.8416L182.204 93.615L174.51 93.2493L169.968 93.0279C169.179 92.9609 168.381 93.0279 167.564 93.0279H165.089C158.39 93.0279 152.335 92.6982 147.956 92.4871L142.769 92.2141L141.368 92.1265L140.999 92.0956C140.958 92.1044 140.915 92.1044 140.873 92.0956H141.368L142.769 92.1317L147.96 92.3222C152.344 92.487 158.399 92.76 165.089 92.7858H167.564C168.381 92.7858 169.183 92.7394 169.972 92.7858L174.515 93.0227L182.209 93.4451L187.395 93.7541L188.796 93.8519L189.165 93.8828L189.282 93.888Z" fill="#263238"/>
<path d="M41.3727 119.836H264.156V155.74H20.8031V142.524C20.8043 136.506 22.972 130.736 26.8295 126.481C30.6869 122.226 35.9181 119.836 41.3727 119.836Z" fill="#FFC269"/>
<g opacity="0.4">
<path d="M41.3727 119.836H264.156V155.74H20.8031V142.524C20.8043 136.506 22.972 130.736 26.8295 126.481C30.6869 122.226 35.9181 119.836 41.3727 119.836Z" fill="#0D0201"/>
</g>
<path d="M0.00445557 154.504C0.00445557 154.504 8.6366 164.934 24.5097 162.812C24.5097 162.812 18.1604 123.941 51.4285 121.804C51.4285 121.804 66.676 120.336 74.5285 134.165C76.7903 138.219 78.0237 142.869 78.0999 147.628C78.2307 153.088 78.3847 162.307 77.9879 164.625C77.9879 164.625 187.923 159.582 207.167 161.998C207.167 161.998 198.408 131.924 222.54 122.277C226.658 120.629 231.41 120.449 235.747 121.124C241.663 122.041 248.002 125.028 252.087 131.94C253.847 134.912 256.023 139.223 256.639 142.704C257.69 148.674 256.975 154.298 256.639 157.224L265.738 156.25L272.302 132.254L271.369 117.961L264.613 103.87L248.6 105.971C248.6 105.971 218.973 96.7002 201.541 92.8321C184.109 88.9641 156.574 88.1967 149.907 89.4689C143.24 90.7411 140.701 92.1008 137.395 93.6768C134.09 95.2529 103.609 111.333 103.609 111.333L57.0261 111.75C57.0261 111.75 25.2053 111.019 5.10718 137.394L7.77292 149.271L0.00445557 154.504Z" fill="#FFC269"/>
<path d="M103.618 111.333C103.618 111.333 132.325 112.682 139.879 112.363C147.433 112.043 188.301 106.754 188.301 106.754L188.89 93.8056C188.89 93.8056 175.332 92.827 166.434 92.827C159.029 92.827 140.845 92.0647 140.845 92.0647C140.267 92.3325 139.632 92.6107 139.039 92.8888C128.478 97.859 116.611 104.41 103.618 111.333Z" fill="#455A64"/>
<path d="M11.9048 129.828C11.9048 129.828 16.1579 130.58 21.4754 127.948C26.7928 125.316 41.9236 116.318 41.9236 116.318L40.9245 114.032C40.9245 114.032 38.2121 114.634 35.0889 115.726C31.709 116.932 28.4188 118.425 25.2476 120.192C22.7595 121.569 20.3408 123.094 18.002 124.76C15.8825 126.318 13.8467 128.01 11.9048 129.828Z" fill="#EBEBEB"/>
<path d="M20.1215 137.317C20.1215 137.389 17.1616 137.544 13.5015 137.662C9.84136 137.78 6.87217 137.817 6.8675 137.739C6.86283 137.662 9.83203 137.513 13.4922 137.394C17.1523 137.276 20.1215 137.245 20.1215 137.317Z" fill="#263238"/>
<g opacity="0.4">
<path d="M7.78247 149.271L18.2073 154.633C18.2073 154.633 7.98322 156.868 0 154.52L7.78247 149.271Z" fill="#FFF8F7"/>
</g>
<path d="M25.7096 134.546C25.7096 134.546 22.3576 139.964 21.8767 144.28C21.3959 148.596 21.3212 154.01 21.3212 154.01H22.8384C22.8384 154.01 21.5779 140.84 27.8665 134.546H25.7096Z" fill="#EBEBEB"/>
<g opacity="0.3">
<path d="M78.7771 124.379L75.1356 120.562L106.004 119.357L84.6034 122.37L78.7771 124.379Z" fill="#0D0201"/>
</g>
<path d="M81.144 154.854C81.1381 154.805 81.1381 154.755 81.144 154.705C81.144 154.587 81.144 154.442 81.1207 154.262C81.1207 153.876 81.0927 153.304 81.046 152.573C80.9484 150.503 80.7551 148.44 80.4671 146.392C80.0426 143.348 79.2805 140.373 78.1982 137.533C76.8588 134.064 74.9212 130.916 72.4932 128.262C70.0702 125.617 67.2201 123.494 64.0898 122.005L63.5576 121.742L63.0161 121.52L61.9563 121.077C61.242 120.846 60.5557 120.562 59.8835 120.392C59.2112 120.222 58.5529 120.016 57.9087 119.903L56.975 119.707L56.0693 119.573C54.2116 119.314 52.3364 119.244 50.467 119.362C49.7994 119.393 49.2905 119.476 48.9404 119.501L48.5389 119.537H48.4035C48.447 119.52 48.4926 119.509 48.5389 119.507L48.9311 119.445C49.2812 119.404 49.7947 119.301 50.4577 119.254C52.3416 119.093 54.2353 119.138 56.1113 119.388L57.045 119.512L57.9787 119.697C58.623 119.81 59.2812 119.991 59.9675 120.176C60.6538 120.362 61.3401 120.624 62.059 120.856L63.1281 121.294L63.6743 121.515L64.2112 121.778C67.3802 123.267 70.2661 125.402 72.7173 128.072C75.1657 130.746 77.1151 133.923 78.455 137.425C79.5269 140.283 80.2688 143.278 80.6632 146.341C80.9271 148.406 81.0814 150.487 81.1254 152.573C81.158 153.309 81.1254 153.881 81.1534 154.267V154.71C81.1568 154.758 81.1537 154.807 81.144 154.854Z" fill="#263238"/>
<g opacity="0.4">
<path d="M86.3307 153.016L104.795 144.306L195.374 146.227L86.3307 153.016Z" fill="#FFF8F7"/>
</g>
<path d="M103.688 144.831L78.1794 123.756L84.6034 122.37L110.967 144.435L103.688 144.831Z" fill="#263238"/>
<path d="M111.812 163.219C111.786 163.156 111.769 163.091 111.76 163.023C111.723 162.874 111.681 162.683 111.625 162.441C111.508 161.926 111.35 161.153 111.158 160.201C110.747 158.243 110.168 155.472 109.468 152.114V152.089V152.058C110.103 149.73 110.827 147.103 111.606 144.27V144.332C111.303 141.963 110.981 139.408 110.645 136.761C110.178 133.037 109.758 129.493 109.501 126.243L109.459 125.636C109.445 125.43 109.445 125.223 109.459 125.018C109.503 124.623 109.58 124.233 109.688 123.854C109.893 123.135 110.145 122.435 110.444 121.757C110.981 120.549 111.576 119.373 112.227 118.234C113.418 116.143 114.482 114.536 115.229 113.429C115.603 112.878 115.901 112.456 116.107 112.177C116.2 112.043 116.28 111.94 116.34 111.858C116.401 111.776 116.424 111.75 116.429 111.755C116.412 111.797 116.39 111.837 116.364 111.874L116.144 112.208L115.304 113.491C114.58 114.614 113.539 116.241 112.377 118.332C111.738 119.47 111.154 120.645 110.626 121.85C110.338 122.517 110.093 123.205 109.893 123.91C109.672 124.652 109.606 125.439 109.702 126.212C109.968 129.447 110.411 132.991 110.859 136.714C111.195 139.362 111.513 141.916 111.793 144.286V144.332L109.622 152.114V152.058C110.29 155.421 110.841 158.202 111.228 160.164L111.658 162.415C111.704 162.657 111.737 162.853 111.765 163.008C111.79 163.075 111.805 163.146 111.812 163.219Z" fill="#263238"/>
<path d="M112.498 111.719L148.156 92.4819L157.4 92.8321C157.4 92.8321 134.361 98.8891 130.019 112.316L112.498 111.719Z" fill="#263238"/>
<path d="M217.167 99.9965L213.656 104.318L188.301 106.769L188.89 93.821C188.89 93.821 213.245 97.8693 217.167 99.9965Z" fill="#263238"/>
<path d="M112.47 157.208L112.778 157.177L113.689 157.115L117.19 156.909L130.07 156.209L172.554 153.984L178.693 153.659C180.669 153.49 182.589 152.856 184.324 151.8C187.75 149.74 190.393 146.624 192.55 143.477C194.609 140.49 196.322 137.23 197.648 133.773C198.803 130.761 199.512 127.563 199.749 124.302C199.837 122.883 199.82 121.458 199.697 120.042C199.576 118.78 199.373 117.528 199.09 116.298C198.623 114.327 197.909 112.438 196.971 110.684C196.367 109.583 195.67 108.548 194.889 107.593C194.618 107.269 194.398 107.037 194.254 106.872L194.044 106.62C194.044 106.62 194.123 106.692 194.272 106.852C194.422 107.011 194.646 107.238 194.926 107.552C195.725 108.503 196.436 109.538 197.05 110.643C198.005 112.4 198.736 114.294 199.221 116.272C199.512 117.509 199.722 118.767 199.851 120.037C199.983 121.464 200.007 122.901 199.921 124.333C199.695 127.615 198.991 130.836 197.834 133.871C196.514 137.357 194.799 140.645 192.732 143.657C190.584 146.799 187.909 149.925 184.454 152.058C182.689 153.132 180.736 153.778 178.726 153.953L172.573 154.277L130.089 156.42L117.209 157.043L113.703 157.198L112.792 157.229L112.47 157.208Z" fill="#455A64"/>
<path d="M215.743 116.045C215.7 115.578 215.617 115.115 215.495 114.665C215.107 113.454 214.337 112.437 213.325 111.801C212.584 111.331 211.764 111.03 210.916 110.918C210.067 110.805 209.206 110.883 208.385 111.147C207.416 111.453 206.539 112.04 205.846 112.847C205.085 113.701 204.659 114.851 204.659 116.048C204.659 117.245 205.085 118.395 205.846 119.249C206.537 120.058 207.415 120.643 208.385 120.944C209.206 121.21 210.067 121.29 210.916 121.177C211.765 121.065 212.585 120.763 213.325 120.289C214.339 119.656 215.11 118.639 215.495 117.426C215.617 116.975 215.7 116.513 215.743 116.045C215.754 116.169 215.754 116.293 215.743 116.416C215.743 116.565 215.729 116.713 215.701 116.859C215.681 117.063 215.64 117.263 215.58 117.457C215.217 118.718 214.443 119.785 213.409 120.454C212.65 120.952 211.808 121.274 210.932 121.398C210.057 121.523 209.168 121.449 208.32 121.18C207.306 120.873 206.387 120.266 205.664 119.424C204.862 118.522 204.413 117.309 204.413 116.045C204.413 114.782 204.862 113.569 205.664 112.667C206.389 111.827 207.307 111.22 208.32 110.91C209.168 110.641 210.058 110.567 210.933 110.693C211.809 110.819 212.651 111.142 213.409 111.642C214.444 112.307 215.218 113.374 215.58 114.634C215.64 114.828 215.681 115.028 215.701 115.232C215.729 115.379 215.743 115.529 215.743 115.68C215.754 115.801 215.754 115.924 215.743 116.045Z" fill="#263238"/>
<path d="M249.067 105.914H248.946H248.582L247.181 105.945L242.046 106.053C237.704 106.146 231.705 106.29 225.085 106.568C218.465 106.847 212.48 107.171 208.138 107.526C205.976 107.717 204.221 107.861 203.002 108.005L201.602 108.15L201.238 108.181C201.196 108.187 201.153 108.187 201.112 108.181C201.152 108.173 201.193 108.173 201.233 108.181L201.593 108.124L202.993 107.928C204.198 107.753 205.948 107.578 208.129 107.362C212.461 106.955 218.455 106.584 225.08 106.332C231.705 106.079 237.685 105.956 242.046 105.909C244.216 105.909 245.976 105.883 247.181 105.909H248.582H248.946C248.986 105.904 249.027 105.906 249.067 105.914Z" fill="#263238"/>
<path d="M251.247 105.626L266.607 108.021L264.613 103.87L251.247 105.626Z" fill="#EBEBEB"/>
<path d="M263.203 107.248C263.183 107.337 263.155 107.423 263.119 107.506L262.839 108.222C262.592 108.845 262.209 109.736 261.719 110.797C260.436 113.625 259.018 116.376 257.47 119.038C255.921 121.7 254.246 124.27 252.452 126.738C251.761 127.685 251.191 128.437 250.78 128.942L250.313 129.524C250.262 129.596 250.202 129.66 250.136 129.715C250.136 129.715 250.178 129.632 250.276 129.488L250.71 128.875C251.098 128.36 251.644 127.577 252.321 126.619C253.67 124.709 255.463 121.984 257.27 118.894C259.076 115.803 260.538 112.852 261.574 110.704C262.083 109.633 262.508 108.757 262.755 108.129L263.077 107.434C263.113 107.367 263.155 107.305 263.203 107.248Z" fill="#263238"/>
<path d="M260.169 153.273C260.162 153.218 260.162 153.163 260.169 153.108V152.593C260.169 152.166 260.169 151.563 260.169 150.729C260.067 148.442 259.754 146.173 259.235 143.956C258.456 140.674 257.369 137.491 255.991 134.458C255.21 132.651 254.324 130.902 253.339 129.22C252.295 127.411 250.986 125.806 249.464 124.472C247.903 123.19 246.17 122.183 244.328 121.489C242.618 120.827 240.864 120.31 239.081 119.944C236.064 119.325 232.989 119.114 229.926 119.316C227.855 119.446 225.797 119.761 223.773 120.259L222.839 120.501L222.148 120.696L221.719 120.815C221.672 120.832 221.623 120.842 221.574 120.846C221.619 120.822 221.666 120.803 221.714 120.789L222.134 120.645L222.82 120.423L223.754 120.155C225.779 119.616 227.842 119.271 229.921 119.125C233.007 118.899 236.106 119.099 239.146 119.723C240.943 120.087 242.712 120.603 244.436 121.268C246.3 121.969 248.053 122.988 249.632 124.286C251.173 125.642 252.499 127.269 253.558 129.102C254.544 130.794 255.431 132.554 256.215 134.371C257.587 137.425 258.662 140.631 259.422 143.935C259.919 146.168 260.2 148.452 260.262 150.749C260.262 151.563 260.262 152.197 260.23 152.624C260.23 152.825 260.23 152.985 260.202 153.108C260.197 153.165 260.186 153.22 260.169 153.273Z" fill="#263238"/>
<path d="M272.344 129.632C272.144 129.729 271.936 129.806 271.723 129.864C271.327 130.003 270.738 130.178 270.01 130.379C266.209 131.398 262.316 131.942 258.404 132.002C257.652 132.002 257.046 132.002 256.625 132.002C256.408 132.003 256.191 131.984 255.976 131.945C256.191 131.904 256.408 131.888 256.625 131.899L258.399 131.832C259.893 131.77 261.957 131.62 264.221 131.317C266.485 131.013 268.516 130.57 269.977 130.225L271.705 129.797C271.913 129.721 272.127 129.666 272.344 129.632Z" fill="#263238"/>
<path d="M96.2889 130.23C96.2889 130.23 96.3916 130.23 96.5877 130.189L97.4607 130.101L100.827 129.797L113.212 128.726C123.661 127.845 138.1 126.666 154.067 125.574C162.05 125.033 169.66 124.58 176.583 124.224C183.507 123.869 189.758 123.709 194.996 124.08C199.134 124.31 203.247 124.918 207.293 125.898C208.722 126.285 209.823 126.588 210.561 126.846L211.401 127.124L211.686 127.227C211.686 127.227 211.583 127.227 211.392 127.15L210.547 126.903C209.805 126.661 208.68 126.388 207.279 126.001C203.228 125.054 199.114 124.467 194.977 124.245C189.749 123.915 183.502 124.07 176.583 124.451C169.665 124.832 162.055 125.28 154.072 125.821C138.11 126.897 123.67 128.061 113.217 128.911L100.831 129.91L97.4654 130.168L96.5924 130.23H96.2889Z" fill="#263238"/>
<path d="M231.722 174.641C244.424 174.443 254.576 162.922 254.396 148.909C254.217 134.895 243.774 123.695 231.071 123.893C218.369 124.092 208.217 135.612 208.397 149.626C208.577 163.64 219.019 174.839 231.722 174.641Z" fill="#263238"/>
<path d="M208.395 148.844C208.395 148.844 208.395 148.885 208.395 148.905C208.351 152.238 208.902 155.547 210.018 158.644C211.133 161.741 212.79 164.565 214.895 166.955C217 169.346 219.511 171.255 222.284 172.575C225.058 173.895 228.04 174.599 231.061 174.648C237.16 174.745 243.046 172.166 247.422 167.476C251.797 162.787 254.305 156.372 254.394 149.642V149.575L208.395 148.844Z" fill="#263238"/>
<path d="M215.244 149.019C215.199 152.542 216.102 156 217.838 158.957C219.575 161.914 222.067 164.236 225 165.63C227.933 167.025 231.174 167.428 234.315 166.79C237.456 166.152 240.354 164.501 242.645 162.046C244.935 159.59 246.514 156.441 247.182 152.996C247.85 149.55 247.577 145.964 246.397 142.69C245.218 139.416 243.185 136.601 240.556 134.601C237.926 132.602 234.819 131.507 231.625 131.456C229.504 131.421 227.398 131.848 225.426 132.712C223.454 133.576 221.656 134.86 220.135 136.491C218.613 138.122 217.398 140.068 216.559 142.218C215.72 144.368 215.273 146.679 215.244 149.019Z" fill="#FAFAFA"/>
<path d="M231.625 131.456C229.504 131.421 227.398 131.848 225.427 132.711C223.456 133.575 221.658 134.859 220.136 136.49C218.615 138.12 217.4 140.065 216.56 142.214C215.721 144.363 215.273 146.674 215.243 149.014L247.54 149.529C247.571 147.189 247.184 144.866 246.401 142.691C245.618 140.517 244.454 138.534 242.976 136.855C241.498 135.177 239.735 133.836 237.788 132.91C235.84 131.983 233.746 131.489 231.625 131.456Z" fill="#E0E0E0"/>
<path d="M221.555 149.117C221.527 151.263 222.076 153.37 223.133 155.172C224.19 156.974 225.708 158.39 227.495 159.24C229.281 160.09 231.256 160.337 233.17 159.948C235.083 159.56 236.849 158.555 238.245 157.059C239.64 155.563 240.603 153.645 241.01 151.546C241.417 149.447 241.251 147.262 240.532 145.267C239.813 143.273 238.575 141.558 236.973 140.34C235.371 139.122 233.477 138.455 231.532 138.424C230.24 138.403 228.958 138.663 227.757 139.189C226.557 139.715 225.462 140.497 224.535 141.49C223.609 142.483 222.869 143.667 222.357 144.976C221.846 146.285 221.574 147.692 221.555 149.117Z" fill="#263238"/>
<path d="M51.6644 174.648C64.3677 174.555 74.5975 163.118 74.5133 149.103C74.429 135.089 64.0626 123.803 51.3593 123.896C38.6559 123.989 28.4261 135.425 28.5104 149.44C28.5947 163.455 38.961 174.741 51.6644 174.648Z" fill="#263238"/>
<path d="M28.5014 148.844V148.905C28.4576 152.238 29.0091 155.547 30.1244 158.644C31.2398 161.741 32.8971 164.565 35.0018 166.955C37.1066 169.346 39.6174 171.255 42.3911 172.575C45.1648 173.895 48.1469 174.599 51.1672 174.648C57.2671 174.745 63.1523 172.166 67.5282 167.476C71.9041 162.787 74.4121 156.372 74.5007 149.642C74.5007 149.616 74.5007 149.596 74.5007 149.575L28.5014 148.844Z" fill="#263238"/>
<path d="M35.3502 149.019C35.3053 152.542 36.2082 156 37.9447 158.957C39.6813 161.914 42.1735 164.236 45.1063 165.63C48.0391 167.025 51.2808 167.428 54.4216 166.79C57.5623 166.152 60.461 164.501 62.7513 162.046C65.0415 159.59 66.6204 156.441 67.2884 152.996C67.9564 149.55 67.6834 145.964 66.504 142.69C65.3246 139.416 63.2917 136.601 60.6624 134.601C58.033 132.602 54.9253 131.507 51.7321 131.456C49.611 131.422 47.5046 131.849 45.5332 132.713C43.5619 133.577 41.7642 134.862 40.2429 136.493C38.7216 138.124 37.5065 140.07 36.667 142.219C35.8274 144.368 35.38 146.679 35.3502 149.019Z" fill="#FAFAFA"/>
<path d="M51.7323 131.456C49.6116 131.422 47.5055 131.849 45.5345 132.713C43.5634 133.577 41.766 134.861 40.2447 136.491C38.7235 138.121 37.5082 140.067 36.6685 142.215C35.8287 144.364 35.3808 146.674 35.3503 149.014L67.6474 149.529C67.6788 147.189 67.2921 144.865 66.5092 142.69C65.7263 140.515 64.5625 138.532 63.0845 136.854C61.6065 135.175 59.8432 133.835 57.8953 132.908C55.9474 131.982 53.8532 131.489 51.7323 131.456Z" fill="#E0E0E0"/>
<path d="M41.6621 149.117C41.6337 151.263 42.1827 153.37 43.2397 155.172C44.2967 156.973 45.8143 158.389 47.6005 159.239C49.3867 160.09 51.3614 160.336 53.2748 159.949C55.1882 159.561 56.9544 158.556 58.3501 157.061C59.7458 155.566 60.7083 153.648 61.1159 151.549C61.5235 149.45 61.358 147.266 60.6401 145.271C59.9222 143.276 58.6844 141.561 57.083 140.342C55.4816 139.123 53.5886 138.456 51.6434 138.424C50.3516 138.403 49.0687 138.663 47.8679 139.189C46.6672 139.715 45.5721 140.497 44.6452 141.49C43.7183 142.482 42.9778 143.667 42.4659 144.976C41.9541 146.284 41.6809 147.692 41.6621 149.117Z" fill="#263238"/>
<path d="M202.732 105.374C202.401 105.358 202.07 105.374 201.742 105.42C201.088 105.471 200.127 105.564 198.89 105.693C196.415 105.956 192.82 106.352 188.413 106.867L172.886 108.721L163.721 109.875L158.88 110.529C157.246 110.776 155.579 111.044 153.894 111.209C150.514 111.595 147.209 111.879 144.02 112.131L139.319 112.471L138.17 112.543H134.8C128.917 112.543 123.623 112.414 119.179 112.208C114.734 112.002 111.144 111.755 108.661 111.57L105.803 111.343L105.061 111.276L104.809 111.245C104.809 111.245 104.898 111.245 105.066 111.245L105.808 111.286L108.665 111.461C111.149 111.616 114.734 111.837 119.183 112.013C123.633 112.188 128.917 112.296 134.8 112.291H138.161L139.305 112.219L144.025 111.884C147.213 111.631 150.519 111.343 153.889 110.957C155.579 110.771 157.232 110.529 158.871 110.277C160.509 110.024 162.139 109.834 163.717 109.628L172.886 108.495C178.726 107.789 183.992 107.181 188.418 106.692C192.844 106.203 196.425 105.832 198.904 105.605C201.383 105.379 202.741 105.286 202.732 105.374Z" fill="#263238"/>
<path d="M128.731 115.185C128.731 115.185 132.554 107.027 135.267 105.621C135.267 105.621 142.489 104.776 143.591 105.059C144.692 105.343 145.038 107.217 145.038 108.433C145.038 109.648 145.206 111.812 144.356 112.553C143.507 113.295 144.188 113.213 142.573 113.681C140.958 114.15 137.489 113.429 137.489 113.429L137.573 116.895C137.573 116.895 133.749 119.053 131.284 118.399C130.6 118.242 129.981 117.844 129.52 117.264C129.059 116.684 128.782 115.954 128.731 115.185Z" fill="#FFC269"/>
<path d="M137.606 116.875C137.588 116.799 137.578 116.721 137.578 116.643C137.578 116.468 137.578 116.241 137.545 115.963C137.522 115.345 137.489 114.485 137.451 113.388V113.295H137.536C138.49 113.483 139.453 113.611 140.421 113.676C140.995 113.719 141.571 113.705 142.143 113.635C142.447 113.587 142.747 113.511 143.04 113.408C143.334 113.295 143.675 113.244 143.838 112.976C143.946 112.826 144.066 112.688 144.198 112.564C144.327 112.457 144.442 112.33 144.538 112.188C144.723 111.877 144.843 111.525 144.888 111.158C144.983 110.371 145.011 109.576 144.973 108.783C145.007 107.956 144.896 107.128 144.646 106.347C144.524 105.957 144.305 105.613 144.015 105.353C143.691 105.14 143.312 105.05 142.937 105.095C141.583 105.095 140.253 105.224 138.978 105.332C137.704 105.441 136.48 105.569 135.327 105.698H135.36C134.692 106.111 134.095 106.65 133.595 107.29C133.121 107.86 132.677 108.46 132.265 109.087C131.471 110.261 130.864 111.348 130.337 112.255C129.809 113.161 129.445 113.887 129.183 114.387L128.885 114.959C128.854 115.027 128.816 115.09 128.773 115.149C128.791 115.076 128.818 115.005 128.852 114.938L129.123 114.351C129.361 113.836 129.73 113.099 130.22 112.177C130.71 111.255 131.331 110.158 132.115 108.963C132.528 108.327 132.972 107.717 133.446 107.135C133.959 106.467 134.575 105.906 135.267 105.477H135.304C136.457 105.343 137.68 105.209 138.955 105.09C140.229 104.972 141.564 104.853 142.942 104.848C143.149 104.847 143.357 104.861 143.563 104.889C143.779 104.921 143.985 105.014 144.16 105.157C144.488 105.446 144.734 105.832 144.87 106.27C145.129 107.081 145.243 107.94 145.206 108.799C145.246 109.609 145.213 110.422 145.108 111.225C145.054 111.625 144.92 112.007 144.716 112.342C144.608 112.498 144.48 112.637 144.338 112.754C144.217 112.87 144.106 112.997 144.006 113.135C142.816 114.026 141.504 113.939 140.411 113.882C139.438 113.806 138.47 113.664 137.512 113.455L137.592 113.377C137.592 114.454 137.615 115.314 137.624 115.953C137.624 116.231 137.624 116.468 137.624 116.627C137.626 116.71 137.619 116.793 137.606 116.875Z" fill="#263238"/>
<path d="M88.4691 126.65C87.5411 126.79 86.6036 126.836 85.668 126.789C84.7323 126.836 83.7948 126.79 82.8668 126.65C83.7953 126.517 84.7325 126.473 85.668 126.516C86.6034 126.472 87.5406 126.517 88.4691 126.65Z" fill="#455A64"/>
<path d="M92.484 129.911C91.5558 130.047 90.6184 130.091 89.6829 130.044C88.7474 130.091 87.8101 130.046 86.8818 129.911C87.8103 129.778 88.7474 129.733 89.6829 129.777C90.6184 129.733 91.5555 129.778 92.484 129.911Z" fill="#455A64"/>
<path d="M96.4755 133.119C95.547 133.252 94.6098 133.297 93.6744 133.253C92.7389 133.297 91.8017 133.252 90.8732 133.119C91.8017 132.986 92.7389 132.941 93.6744 132.985C94.6098 132.942 95.547 132.986 96.4755 133.119Z" fill="#455A64"/>
<path d="M100.467 136.354C99.5385 136.487 98.6014 136.531 97.6659 136.488C96.7305 136.531 95.7933 136.487 94.8648 136.354C95.7931 136.218 96.7305 136.173 97.6659 136.22C98.6014 136.173 99.5388 136.218 100.467 136.354Z" fill="#455A64"/>
<path d="M104.459 139.588C103.53 139.721 102.593 139.766 101.658 139.722C100.722 139.766 99.785 139.721 98.8565 139.588C99.7845 139.449 100.722 139.402 101.658 139.449C102.593 139.402 103.531 139.449 104.459 139.588Z" fill="#455A64"/>
<path d="M108.455 142.818C107.527 142.954 106.589 142.998 105.654 142.952C104.719 142.999 103.781 142.954 102.853 142.818C103.781 142.685 104.719 142.64 105.654 142.684C106.589 142.64 107.527 142.685 108.455 142.818Z" fill="#455A64"/>
<path d="M142.624 106.187C141.481 106.32 140.332 106.365 139.183 106.321C138.034 106.365 136.882 106.32 135.738 106.187C136.882 106.052 138.034 106.007 139.183 106.053C140.332 106.007 141.482 106.052 142.624 106.187Z" fill="#FFF8F7"/>
<path d="M60.9899 119.321C60.7527 119.296 60.5182 119.246 60.2896 119.172C59.8461 119.058 59.1972 118.909 58.3895 118.749C57.5819 118.59 56.6155 118.451 55.5417 118.343C53.2078 118.124 50.859 118.193 48.5389 118.549C47.4698 118.713 46.5128 118.914 45.7144 119.12C44.9161 119.326 44.2765 119.512 43.847 119.635C43.6219 119.72 43.3908 119.784 43.1561 119.826C43.3676 119.705 43.5898 119.609 43.819 119.537C44.2485 119.362 44.8881 119.146 45.6864 118.914C46.6207 118.65 47.5665 118.439 48.5202 118.281C50.8595 117.89 53.2337 117.82 55.5884 118.075C56.6715 118.198 57.6426 118.358 58.4502 118.543C59.2579 118.729 59.9021 118.904 60.341 119.058C60.5633 119.127 60.7803 119.215 60.9899 119.321Z" fill="#FFF8F7"/>
<path d="M195.379 146.227C195.379 146.299 171.018 147.845 140.967 149.678C110.915 151.512 86.5409 152.938 86.5362 152.861C86.5315 152.784 110.892 151.244 140.953 149.41C171.014 147.577 195.379 146.15 195.379 146.227Z" fill="#FFF8F7"/>
<path d="M242.223 119.095C241.957 119.045 241.696 118.969 241.443 118.868C241.196 118.785 240.892 118.688 240.538 118.59C240.183 118.492 239.781 118.363 239.328 118.26C238.432 118.023 237.349 117.807 236.14 117.627C234.828 117.447 233.508 117.349 232.186 117.333C230.865 117.332 229.544 117.411 228.231 117.57C227.017 117.735 225.934 117.936 225.033 118.157C224.566 118.255 224.179 118.379 223.824 118.471C223.469 118.564 223.161 118.657 222.914 118.739C222.658 118.832 222.395 118.905 222.13 118.955C222.373 118.828 222.626 118.723 222.886 118.641C223.129 118.543 223.432 118.435 223.787 118.327C224.142 118.219 224.543 118.08 224.996 117.972C226.053 117.691 227.124 117.476 228.203 117.328C229.526 117.15 230.858 117.06 232.19 117.06C233.522 117.081 234.852 117.189 236.173 117.385C237.249 117.549 238.317 117.78 239.37 118.075C239.837 118.188 240.22 118.332 240.575 118.446C240.93 118.559 241.229 118.672 241.471 118.77C241.728 118.859 241.979 118.968 242.223 119.095Z" fill="#FFF8F7"/>
<path d="M208.362 110.375C208.362 110.416 208.017 110.473 207.484 110.663C206.09 111.169 204.904 112.204 204.137 113.583C203.995 113.884 203.839 114.176 203.67 114.459C203.712 114.116 203.818 113.786 203.983 113.491C204.337 112.752 204.826 112.103 205.42 111.585C206.014 111.067 206.7 110.692 207.433 110.483C207.732 110.374 208.049 110.338 208.362 110.375Z" fill="#FFF8F7"/>
<path d="M227.433 105.461C226.966 105.604 226.488 105.699 226.005 105.744C225.113 105.873 223.876 106.007 222.508 106.074C221.14 106.141 219.898 106.126 219.002 106.074C218.516 106.08 218.031 106.031 217.554 105.93C218.037 105.877 218.522 105.861 219.006 105.883C219.898 105.883 221.135 105.883 222.498 105.796C223.862 105.708 225.094 105.626 225.986 105.544C226.466 105.474 226.949 105.446 227.433 105.461Z" fill="#FFF8F7"/>
<path d="M176.191 109.978C176.191 110.05 171.607 110.843 165.92 111.75C160.234 112.656 155.649 113.331 155.617 113.259C155.584 113.187 160.206 112.389 165.888 111.487C171.569 110.586 176.182 109.906 176.191 109.978Z" fill="#FFF8F7"/>
<path d="M171.508 98.7294C171.536 98.7964 169.347 99.9089 166.62 101.212C163.894 102.515 161.662 103.514 161.634 103.447C161.606 103.38 163.796 102.268 166.522 100.965C169.249 99.6617 171.48 98.6625 171.508 98.7294Z" fill="#FFF8F7"/>
<path d="M168.904 97.313C168.707 97.4717 168.498 97.6097 168.278 97.7251C167.867 97.9723 167.27 98.3226 166.523 98.7552C165.033 99.5896 162.946 100.697 160.607 101.845C158.269 102.994 156.121 103.906 154.538 104.56C153.754 104.884 153.114 105.131 152.671 105.296C152.445 105.394 152.212 105.471 151.975 105.528C152.186 105.394 152.408 105.283 152.638 105.198L154.473 104.385C156.028 103.695 158.161 102.731 160.495 101.598C162.83 100.465 164.926 99.3938 166.434 98.6007L168.222 97.6633C168.44 97.5259 168.668 97.4087 168.904 97.313Z" fill="#FFF8F7"/>
<path d="M251.355 142.442C250.983 141.348 250.559 140.277 250.085 139.233C249.538 138.232 248.946 137.263 248.311 136.328C248.575 136.521 248.807 136.764 248.997 137.044C249.493 137.679 249.928 138.37 250.295 139.104C250.663 139.839 250.957 140.616 251.173 141.422C251.286 141.748 251.348 142.093 251.355 142.442Z" fill="#455A64"/>
<path d="M251.098 148.045C251.026 147.604 250.976 147.159 250.948 146.711C250.829 145.645 250.615 144.595 250.309 143.575C249.994 142.559 249.59 141.579 249.104 140.649C248.879 140.276 248.674 139.889 248.488 139.49C248.787 139.801 249.044 140.159 249.249 140.551C249.791 141.467 250.224 142.455 250.538 143.492C250.854 144.527 251.05 145.602 251.121 146.691C251.173 147.141 251.165 147.597 251.098 148.045Z" fill="#455A64"/>
<path d="M215.855 159.577C215.568 159.291 215.321 158.96 215.122 158.594C214.066 156.89 213.348 154.959 213.017 152.928C212.928 152.511 212.892 152.083 212.909 151.656C213.196 153.055 213.567 154.432 214.02 155.776C214.553 157.088 215.166 158.358 215.855 159.577Z" fill="#455A64"/>
<path d="M216.569 163.796C216.569 163.796 216.448 163.708 216.257 163.512C216.065 163.317 215.79 163.028 215.491 162.652C214.682 161.663 213.962 160.588 213.343 159.443C212.724 158.3 212.206 157.092 211.798 155.838C211.649 155.359 211.537 154.963 211.476 154.684C211.428 154.544 211.403 154.396 211.401 154.247C211.439 154.247 211.616 154.834 211.961 155.792C212.409 157.014 212.939 158.197 213.549 159.33C214.166 160.46 214.859 161.538 215.622 162.554C215.957 162.95 216.273 163.364 216.569 163.796Z" fill="#455A64"/>
<path d="M37.6144 162.518C37.338 162.295 37.0885 162.034 36.8721 161.741C36.3196 161.074 35.805 160.371 35.3315 159.634C34.853 158.898 34.4179 158.129 34.029 157.332C33.8453 157.012 33.7039 156.665 33.6088 156.302C33.6742 156.26 34.4212 157.759 35.5276 159.469C36.634 161.179 37.6658 162.462 37.6144 162.518Z" fill="#455A64"/>
<path d="M38.2728 165.449C37.4778 164.863 36.7518 164.171 36.1113 163.389C35.4142 162.66 34.8025 161.838 34.2905 160.942C34.3465 160.896 35.1869 161.972 36.284 163.198C37.3811 164.424 38.3195 165.387 38.2728 165.449Z" fill="#455A64"/>
<path d="M70.2617 146.171C70.1917 146.171 70.0236 144.842 69.4961 143.292C68.9685 141.741 68.3056 140.608 68.3709 140.562C69.5161 142.166 70.17 144.13 70.2384 146.171H70.2617Z" fill="#455A64"/>
<path d="M71.4334 146.66C71.2131 145.38 70.9009 144.121 70.4997 142.895C70.0166 141.703 69.45 140.554 68.8051 139.46C69.0743 139.711 69.3073 140.006 69.496 140.335C69.9918 141.097 70.4054 141.919 70.7285 142.787C71.0484 143.657 71.2725 144.567 71.3961 145.496C71.4656 145.879 71.4783 146.272 71.4334 146.66Z" fill="#455A64"/>
<path d="M33.5622 168.786C33.2894 168.608 33.0436 168.384 32.8339 168.122C32.2878 167.539 31.7837 166.911 31.326 166.242C30.8662 165.573 30.4526 164.867 30.0888 164.13C29.9185 163.836 29.7894 163.515 29.706 163.178C29.7714 163.141 30.453 164.532 31.5174 166.077C32.5818 167.622 33.6136 168.73 33.5622 168.786Z" fill="#455A64"/>
<path d="M34.7808 171.908C34.6454 171.863 34.5166 171.797 34.398 171.712C34.1599 171.578 33.8284 171.357 33.4269 171.068C31.3309 169.534 29.5626 167.514 28.2448 165.15C27.9974 164.697 27.806 164.321 27.6939 164.053C27.6195 163.921 27.5643 163.777 27.5305 163.626C27.5679 163.626 27.8573 164.177 28.3895 165.047C29.7747 167.321 31.5133 169.307 33.5249 170.914C34.3139 171.526 34.8135 171.866 34.7808 171.908Z" fill="#455A64"/>
<path d="M313.82 131.239C313.82 131.311 307.251 131.373 299.151 131.373C291.051 131.373 284.483 131.311 284.483 131.239C284.483 131.167 291.051 131.105 299.151 131.105C307.251 131.105 313.82 131.162 313.82 131.239Z" fill="#263238"/>
<path d="M314.039 128.468C314.039 128.546 309.371 128.602 303.624 128.602C297.877 128.602 293.208 128.546 293.208 128.468C293.208 128.391 297.877 128.334 303.624 128.334C309.371 128.334 314.039 128.396 314.039 128.468Z" fill="#263238"/>
<path d="M248.283 87.7744C265.447 87.7744 279.361 72.4236 279.361 53.4875C279.361 34.5515 265.447 19.2007 248.283 19.2007C231.119 19.2007 217.204 34.5515 217.204 53.4875C217.204 72.4236 231.119 87.7744 248.283 87.7744Z" fill="#FAFAFA"/>
<path d="M248.283 88.2894C242.044 88.2894 235.945 86.2483 230.757 82.4242C225.569 78.6002 221.526 73.1649 219.139 66.8057C216.751 60.4464 216.126 53.4489 217.343 46.698C218.561 39.9472 221.565 33.7461 225.977 28.8789C230.388 24.0118 236.009 20.6972 242.129 19.3544C248.248 18.0116 254.59 18.7008 260.355 21.3348C266.119 23.9689 271.045 28.4295 274.512 34.1527C277.978 39.8758 279.828 46.6044 279.828 53.4876C279.819 62.7147 276.493 71.5611 270.579 78.0856C264.665 84.6102 256.646 88.2799 248.283 88.2894ZM248.283 19.7209C242.228 19.7209 236.309 21.7018 231.275 25.4129C226.241 29.124 222.318 34.3987 220.001 40.57C217.684 46.7413 217.078 53.5319 218.26 60.0831C219.441 66.6344 222.357 72.6519 226.639 77.3748C230.92 82.0976 236.375 85.3137 242.314 86.6162C248.252 87.9187 254.407 87.2492 260.001 84.6923C265.594 82.1354 270.375 77.806 273.738 72.2515C277.101 66.6971 278.895 60.1672 278.894 53.4876C278.886 44.5341 275.658 35.9502 269.919 29.6197C264.18 23.2891 256.398 19.7291 248.283 19.7209Z" fill="#263238"/>
<path d="M248.6 29.682C248.477 28.594 248.437 27.4966 248.479 26.4011C248.437 25.304 248.477 24.2048 248.6 23.1151C248.72 24.2051 248.761 25.304 248.722 26.4011C248.761 27.4966 248.72 28.5937 248.6 29.682Z" fill="#263238"/>
<path d="M232.545 36.1716C231.832 35.552 231.171 34.8624 230.57 34.1114C229.911 33.4242 229.309 32.6726 228.773 31.8658C229.483 32.4879 230.142 33.1772 230.743 33.926C231.403 34.614 232.006 35.3655 232.545 36.1716Z" fill="#263238"/>
<path d="M228.427 54.1983C225.94 54.3768 223.445 54.3768 220.958 54.1983C223.445 54.0198 225.94 54.0198 228.427 54.1983Z" fill="#263238"/>
<path d="M232.47 71.0301C231.997 71.7656 231.468 72.4548 230.888 73.0903C230.371 73.7874 229.78 74.4134 229.128 74.9548C229.603 74.2208 230.132 73.5317 230.71 72.8946C231.23 72.2002 231.82 71.5746 232.47 71.0301Z" fill="#263238"/>
<path d="M267.741 74.5891C272.286 69.5574 275.094 62.931 275.678 55.8568C276.649 43.0784 271.598 36.3673 267.858 31.907L264.59 35.3321C267.914 39.2464 273.021 47.0185 271.63 56.2327C270.51 63.6546 267.027 69.2377 264.917 71.6482L267.741 74.5891Z" fill="#FFC269"/>
<path d="M247.517 57.8809C246.812 57.7275 246.163 57.3467 245.653 56.7866C245.144 56.2266 244.796 55.5124 244.655 54.7345C244.513 53.9566 244.584 53.1498 244.858 52.4161C245.132 51.6825 245.597 51.0549 246.194 50.6128C246.791 50.1707 247.494 49.9338 248.213 49.9322C248.932 49.9306 249.636 50.1643 250.235 50.6037C250.833 51.0432 251.301 51.6687 251.577 52.4011C251.854 53.1335 251.928 53.94 251.789 54.7185C251.602 55.7623 251.047 56.6814 250.246 57.2743C249.445 57.8672 248.464 58.0853 247.517 57.8809Z" fill="#263238"/>
<path d="M261.173 63.4177L240.08 45.5919L238.073 48.9654L261.173 63.4177Z" fill="#263238"/>
<path d="M275.762 53.2043C275.762 53.2043 275.762 53.0343 275.762 52.6892C275.762 52.3442 275.762 51.8806 275.701 51.2523C275.586 49.4064 275.32 47.5758 274.908 45.7824C273.37 39.1451 269.84 33.2777 264.894 29.1361C263.273 27.7725 261.517 26.6165 259.66 25.6904C257.652 24.6743 255.536 23.939 253.362 23.5014C249.809 22.7787 246.162 22.8259 242.625 23.6405C241.383 23.9369 240.16 24.3223 238.964 24.7942C233.684 26.914 229.122 30.7751 225.898 35.8535C222.675 40.9318 220.946 46.9814 220.946 53.1811C220.946 59.3808 222.675 65.4304 225.898 70.5087C229.122 75.5871 233.684 79.4482 238.964 81.568C240.16 82.0422 241.383 82.4277 242.625 82.7217C246.162 83.5363 249.809 83.5836 253.362 82.8608C255.536 82.424 257.652 81.6886 259.66 80.6718C261.519 79.7457 263.276 78.5898 264.898 77.2262C268.019 74.6052 270.596 71.278 272.455 67.4679C274.314 63.6578 275.413 59.453 275.678 55.1357C275.729 54.5022 275.72 54.0181 275.739 53.6936C275.757 53.3691 275.739 53.1785 275.739 53.1785C275.739 53.1785 275.739 53.843 275.701 55.11C275.608 56.9618 275.358 58.8 274.954 60.6004C274.313 63.4579 273.299 66.1974 271.943 68.733C270.129 72.0855 267.752 75.0257 264.94 77.3961C263.312 78.7744 261.547 79.9442 259.679 80.883C257.657 81.9108 255.528 82.6565 253.339 83.1029C249.762 83.8368 246.089 83.7948 242.527 82.9793C241.276 82.6829 240.044 82.2976 238.838 81.8256C233.509 79.6937 228.904 75.8028 225.649 70.6819C222.395 65.5609 220.649 59.4585 220.649 53.2043C220.649 46.9501 222.395 40.8476 225.649 35.7267C228.904 30.6058 233.509 26.7149 238.838 24.583C240.043 24.1063 241.275 23.7192 242.527 23.4242C246.089 22.6086 249.762 22.5666 253.339 23.3005C257.557 24.1754 261.531 26.1301 264.94 29.0073C267.753 31.3753 270.129 34.3139 271.943 37.6653C273.301 40.1932 274.319 42.9259 274.964 45.7773C275.367 47.5777 275.618 49.4158 275.711 51.2677C275.781 52.5347 275.762 53.2043 275.762 53.2043Z" fill="#263238"/>
<path d="M275.776 53.0086C273.822 53.1871 271.857 53.1871 269.903 53.0086C271.857 52.83 273.822 52.83 275.776 53.0086Z" fill="#263238"/>
<path d="M267.741 74.5891C266.909 73.902 266.129 73.1424 265.407 72.3177C264.633 71.563 263.916 70.7396 263.264 69.8558C264.858 71.3052 266.349 72.8877 267.723 74.5891H267.741Z" fill="#263238"/>
<path d="M267.839 31.907C267.919 31.9842 267.013 33.004 265.846 34.1784C265.166 34.921 264.429 35.5966 263.642 36.1973C264.267 35.3982 264.949 34.6558 265.682 33.9775C266.266 33.3903 266.803 32.8701 267.19 32.4941C267.395 32.2839 267.612 32.0878 267.839 31.907Z" fill="#263238"/>
<path d="M262.928 64.5817C262.491 65.1524 261.898 65.5517 261.238 65.7199C260.6 65.972 259.905 65.9865 259.258 65.7612C259.901 65.7163 260.539 65.6164 261.168 65.4624C261.774 65.2184 262.362 64.9239 262.928 64.5817Z" fill="#263238"/>
<path d="M263.88 65.5294C263.698 65.7938 263.467 66.0131 263.203 66.1732C262.592 66.6032 261.91 66.8955 261.196 67.0334C260.482 67.1713 259.751 67.152 259.044 66.9767C258.747 66.9266 258.462 66.8091 258.208 66.6316C259.169 66.9137 260.175 66.9612 261.154 66.7708C262.134 66.5805 263.064 66.1568 263.88 65.5294Z" fill="#263238"/>
<path d="M241.467 43.1453C240.835 43.0089 240.192 42.9467 239.548 42.9599C238.91 43.0566 238.284 43.2293 237.681 43.475C238.212 43.0156 238.854 42.7381 239.527 42.6767C240.2 42.6154 240.874 42.7729 241.467 43.1299V43.1453Z" fill="#263238"/>
<path d="M241.887 42.244C240.07 41.7867 238.168 41.9872 236.462 42.8158C237.254 42.239 238.163 41.8854 239.108 41.7857C240.053 41.686 241.005 41.8434 241.882 42.244H241.887Z" fill="#263238"/>
</svg>
