<svg width="316" height="175" viewBox="0 0 316 175" fill="none" xmlns="http://www.w3.org/2000/svg">
<path d="M0.0521851 174.362C0.0521851 174.427 70.7824 174.475 158.017 174.475C245.252 174.475 316 174.427 316 174.362C316 174.296 245.283 174.248 158.017 174.248C70.752 174.248 0.0521851 174.301 0.0521851 174.362Z" fill="#263238"/>
<path d="M112.627 86.3931L117.32 101.025L102.158 102.267L112.627 86.3931Z" fill="#E0E0E0"/>
<path d="M28.9205 110.738C37.4467 100.241 51.5962 92.6156 66.7757 90.3322C81.0469 88.1884 97.7603 91.9445 109.363 99.9187L113.848 93.3433C100.681 84.3146 81.7422 80.0486 65.611 82.4757C48.2761 85.0902 32.6621 93.5568 22.7714 105.727L28.9205 110.738Z" fill="#E0E0E0"/>
<path d="M200.379 82.5367L195.686 97.1691L210.848 98.411L200.379 82.5367Z" fill="#E0E0E0"/>
<path d="M280.37 106.25L286.532 101.217C275.959 88.2058 263.526 81.0203 247.421 78.5976C231.316 76.1748 212.334 80.4364 199.184 89.4651L203.656 96.0405C215.254 88.0838 231.972 84.332 246.243 86.4759C260.514 88.6197 271.014 94.7158 280.37 106.25Z" fill="#E0E0E0"/>
<path d="M12.4938 101.409L9.54746 101.583C8.81109 101.593 8.07968 101.705 7.37462 101.919H7.3529C6.90077 102.114 6.49684 102.407 6.16951 102.776C5.84218 103.145 5.59936 103.581 5.45817 104.054L3.75467 108.978C3.68131 109.188 3.69135 109.419 3.78271 109.623C3.87407 109.826 4.03979 109.987 4.24573 110.072L5.61463 110.638C5.7249 110.684 5.8435 110.707 5.96305 110.706C6.0826 110.704 6.20052 110.678 6.30943 110.628C6.41833 110.579 6.51587 110.507 6.59596 110.418C6.67606 110.329 6.73699 110.224 6.77492 110.111L7.84394 106.943C7.87071 106.87 7.91927 106.807 7.98303 106.762C8.04678 106.718 8.12264 106.694 8.20029 106.694L12.685 106.468C13.2557 104.817 13.1875 103.012 12.4938 101.409Z" fill="#455A64"/>
<path d="M10.5339 173.102H33.5878L33.5878 96.071C33.5878 95.277 33.2732 94.5156 32.7133 93.9542C32.1534 93.3928 31.3941 93.0774 30.6023 93.0774H13.5194C12.7276 93.0774 11.9683 93.3928 11.4084 93.9542C10.8485 94.5156 10.5339 95.277 10.5339 96.071L10.5339 173.102Z" fill="#E0E0E0"/>
<path d="M33.579 96.3717V106.119H10.5469L10.3992 96.2496C10.3992 93.9271 12.2635 92.9205 14.5797 92.9205L29.3941 92.8508C31.9016 92.829 33.5877 93.4914 33.579 96.3717Z" fill="#455A64"/>
<path d="M27.1953 125.972H16.9265C16.5281 125.972 16.2051 125.648 16.2051 125.249L16.2051 101.836C16.2051 101.436 16.5281 101.113 16.9265 101.113H27.1953C27.5937 101.113 27.9167 101.436 27.9167 101.836L27.9167 125.249C27.9167 125.648 27.5937 125.972 27.1953 125.972Z" fill="#263238"/>
<path d="M38.8026 174.754H4.88895V171.455H38.8026V174.754Z" fill="#263238"/>
<path d="M10.7599 115.867V122.808L7.13931 120.577V118.342H7.43921C7.99594 118.349 8.5463 118.223 9.04399 117.972C9.54168 117.722 9.97214 117.356 10.2992 116.904C10.5224 116.594 10.6793 116.241 10.7599 115.867Z" fill="#E0E0E0"/>
<path d="M4.70203 156.692C4.08725 156.694 3.48148 156.544 2.93769 156.256C1.06905 155.28 1.04904e-05 152.892 1.04904e-05 149.72V149.655C0.30551 146.168 0.844146 142.707 1.61226 139.293C2.2337 136.277 2.0729 133.083 2.80298 127.528C3.15063 124.878 4.05888 110.011 4.05453 109.958L5.63201 110.651C5.63201 110.882 4.68466 124.931 4.32831 127.728C3.58955 133.327 3.74598 136.552 3.1202 139.593C2.36616 142.937 1.83771 146.327 1.5384 149.742C1.5384 152.287 2.338 154.217 3.65909 154.91C4.08705 155.121 4.56639 155.206 5.04066 155.153C5.51494 155.101 5.96438 154.914 6.33601 154.614C8.07428 153.385 9.69087 150.021 8.94341 144.256C7.15734 136.282 6.06223 130.173 6.11438 124.373C6.26213 113.588 7.73966 111.004 7.90479 110.747L9.20849 111.579C9.20849 111.579 7.8005 114.089 7.66143 124.386C7.61363 130.051 8.69571 136.073 10.4644 143.955V144.025C11.1727 149.515 9.96031 153.943 7.21384 155.869C6.48084 156.395 5.60379 156.683 4.70203 156.692Z" fill="#263238"/>
<path d="M10.5339 107.44V111.666C10.3135 111.738 10.0833 111.775 9.85156 111.775C9.62896 111.776 9.40761 111.742 9.19524 111.675C8.74364 111.534 8.34879 111.252 8.06838 110.871C7.78798 110.489 7.63674 110.027 7.63674 109.553C7.63674 109.079 7.78798 108.617 8.06838 108.235C8.34879 107.854 8.74364 107.572 9.19524 107.431C9.40832 107.368 9.62935 107.335 9.85156 107.335C10.0829 107.336 10.3128 107.371 10.5339 107.44Z" fill="#263238"/>
<path d="M21.6415 135.001L25.9742 143.358H21.7415L23.8665 149.258L18.5865 141.001H22.754L21.6415 135.001Z" fill="#455A64"/>
<path d="M18.9993 122.425H24.6921C24.802 122.417 24.9049 122.368 24.9799 122.287C25.0549 122.206 25.0965 122.1 25.0963 121.989V107.444C25.0965 107.333 25.0549 107.227 24.9799 107.146C24.9049 107.065 24.802 107.016 24.6921 107.008H23.5927L23.6274 105.862C23.6277 105.752 23.5861 105.645 23.5111 105.564C23.436 105.483 23.3332 105.434 23.2233 105.426H20.4681C20.359 105.435 20.2572 105.485 20.1831 105.566C20.109 105.647 20.068 105.752 20.0683 105.862V107.008H19.0036C18.8945 107.017 18.7927 107.067 18.7186 107.148C18.6445 107.228 18.6035 107.334 18.6038 107.444V121.994C18.6045 122.102 18.6453 122.206 18.7184 122.286C18.7916 122.366 18.8917 122.415 18.9993 122.425ZM24.6921 107.448L24.6617 121.994H19.0123L19.0471 107.448H20.1118C20.2217 107.441 20.3245 107.391 20.3996 107.31C20.4746 107.23 20.5162 107.123 20.5159 107.013V105.867H23.2233L23.1928 107.008C23.1925 107.118 23.2335 107.224 23.3076 107.305C23.3817 107.385 23.4835 107.435 23.5927 107.444L24.6921 107.448Z" fill="#455A64"/>
<path d="M19.8851 108.05H23.8056C23.9472 108.05 24.062 108.165 24.062 108.307V108.886C24.062 109.028 23.9472 109.143 23.8056 109.143H19.8851C19.7434 109.143 19.6286 109.028 19.6286 108.886V108.307C19.6286 108.165 19.7434 108.05 19.8851 108.05Z" fill="#455A64"/>
<path d="M19.8851 109.557H23.8056C23.9472 109.557 24.062 109.672 24.062 109.814V110.394C24.062 110.536 23.9472 110.651 23.8056 110.651H19.8851C19.7434 110.651 19.6286 110.536 19.6286 110.394V109.814C19.6286 109.672 19.7434 109.557 19.8851 109.557Z" fill="#455A64"/>
<path d="M19.8851 111.061H23.8056C23.9472 111.061 24.062 111.176 24.062 111.318V111.897C24.062 112.039 23.9472 112.154 23.8056 112.154H19.8851C19.7434 112.154 19.6286 112.039 19.6286 111.897V111.318C19.6286 111.176 19.7434 111.061 19.8851 111.061Z" fill="#455A64"/>
<path d="M19.8851 112.568H23.8056C23.9472 112.568 24.062 112.683 24.062 112.825V113.405C24.062 113.547 23.9472 113.662 23.8056 113.662H19.8851C19.7434 113.662 19.6286 113.547 19.6286 113.405V112.825C19.6286 112.683 19.7434 112.568 19.8851 112.568Z" fill="#455A64"/>
<path d="M19.8851 114.072H23.8056C23.9472 114.072 24.062 114.187 24.062 114.329V114.908C24.062 115.05 23.9472 115.165 23.8056 115.165H19.8851C19.7434 115.165 19.6286 115.05 19.6286 114.908V114.329C19.6286 114.187 19.7434 114.072 19.8851 114.072Z" fill="#455A64"/>
<path d="M19.8851 115.579H23.8056C23.9472 115.579 24.062 115.694 24.062 115.836V116.416C24.062 116.558 23.9472 116.673 23.8056 116.673H19.8851C19.7434 116.673 19.6286 116.558 19.6286 116.416V115.836C19.6286 115.694 19.7434 115.579 19.8851 115.579Z" fill="#455A64"/>
<path d="M19.8851 117.083H23.8056C23.9472 117.083 24.062 117.198 24.062 117.34V117.919C24.062 118.061 23.9472 118.176 23.8056 118.176H19.8851C19.7434 118.176 19.6286 118.061 19.6286 117.919V117.34C19.6286 117.198 19.7434 117.083 19.8851 117.083Z" fill="#455A64"/>
<path d="M19.8851 118.595H23.8056C23.9472 118.595 24.062 118.71 24.062 118.852V119.431C24.062 119.573 23.9472 119.688 23.8056 119.688H19.8851C19.7434 119.688 19.6286 119.573 19.6286 119.431V118.852C19.6286 118.71 19.7434 118.595 19.8851 118.595Z" fill="#455A64"/>
<path d="M19.8851 120.124H23.8056C23.9472 120.124 24.062 120.239 24.062 120.381V120.961C24.062 121.103 23.9472 121.218 23.8056 121.218H19.8851C19.7434 121.218 19.6286 121.103 19.6286 120.961V120.381C19.6286 120.239 19.7434 120.124 19.8851 120.124Z" fill="#455A64"/>
<path d="M33.5877 172.514C33.5877 172.514 33.5877 172.344 33.5877 172C33.5877 171.656 33.5877 171.128 33.5877 170.475C33.5877 169.124 33.5877 167.141 33.5877 164.588C33.5877 159.459 33.5877 152.047 33.6225 142.892C33.6572 133.737 33.6442 122.804 33.6572 110.682C33.6572 107.649 33.6572 104.545 33.6572 101.37V96.5764C33.679 96.163 33.6469 95.7484 33.5617 95.3433C33.4069 94.7213 33.0641 94.1625 32.5801 93.7436C32.0962 93.3247 31.4949 93.0661 30.8586 93.0033C27.5516 92.9728 24.2228 93.0033 20.8245 93.0033H14.4016C13.967 93.0033 13.5324 92.9815 13.0979 93.0295C12.3903 93.1194 11.7353 93.451 11.2429 93.9684C10.7506 94.4859 10.4511 95.1576 10.3949 95.8705C10.3731 96.3804 10.3949 96.8597 10.3949 97.3564V117.401C10.3949 124.808 10.3949 131.863 10.3949 138.513C10.3949 151.816 10.3948 163.437 10.4253 172.545V172.619H10.4992L27.4994 172.579H32.0102H33.1662H33.553H33.1532H31.9842H27.456L10.5078 172.54L10.5774 172.61C10.5774 163.503 10.5774 151.881 10.6078 138.578C10.6078 131.929 10.6078 124.856 10.6078 117.466C10.6078 113.777 10.6078 110.009 10.6078 106.163V97.3216C10.6078 96.8335 10.6078 96.3281 10.6078 95.8531C10.661 95.195 10.9391 94.5754 11.3951 94.099C11.8512 93.6227 12.4573 93.3188 13.1109 93.2386C13.5194 93.1907 13.9801 93.2386 14.4146 93.2125H20.8636C24.2532 93.2125 27.6124 93.2125 30.8586 93.2125C31.4512 93.2689 32.0115 93.509 32.4617 93.8995C32.9118 94.2899 33.2295 94.8114 33.3704 95.3912C33.4516 95.7792 33.4823 96.1762 33.4617 96.5721V101.365C33.4617 104.535 33.4617 107.633 33.4617 110.66C33.4617 122.765 33.4878 133.667 33.4965 142.827C33.5051 151.986 33.5225 159.407 33.5312 164.535C33.5312 167.102 33.5312 169.093 33.5312 170.453C33.5312 171.124 33.5312 171.643 33.5312 171.991C33.5312 172.34 33.5877 172.514 33.5877 172.514Z" fill="#263238"/>
<path d="M300.877 107.239C300.877 107.239 298.739 101.139 296.374 98.7247V101.226C296.374 101.226 299.082 105.867 299.499 108.49L300.877 107.239Z" fill="#263238"/>
<path d="M293.611 92.8509H276.824C276.032 92.8509 275.273 93.1663 274.713 93.7277C274.153 94.2891 273.838 95.0505 273.838 95.8445V172.736H296.601V95.8445C296.601 95.451 296.524 95.0614 296.373 94.6979C296.223 94.3344 296.003 94.0042 295.725 93.7262C295.447 93.4481 295.118 93.2277 294.755 93.0775C294.392 92.9273 294.004 92.8503 293.611 92.8509Z" fill="#E0E0E0"/>
<path d="M276.772 92.8509H293.668C294.446 92.8509 295.192 93.1608 295.742 93.7124C296.292 94.264 296.601 95.0121 296.601 95.7922V105.718H273.843V95.7922C273.843 95.0129 274.151 94.2654 274.7 93.7139C275.249 93.1624 275.994 92.852 276.772 92.8509Z" fill="#FFC269"/>
<path d="M280.087 100.773H290.347C290.707 100.773 290.999 101.065 290.999 101.426V124.66C290.999 125.021 290.707 125.314 290.347 125.314H280.087C279.727 125.314 279.435 125.021 279.435 124.66V101.426C279.435 101.065 279.727 100.773 280.087 100.773Z" fill="#263238"/>
<path d="M268.484 171.107H301.959V174.362H268.484V171.107Z" fill="#263238"/>
<path d="M296.6 107.026V111.196C297.025 111.327 297.479 111.327 297.904 111.196C298.357 111.065 298.756 110.79 299.04 110.412C299.323 110.035 299.477 109.575 299.477 109.102C299.477 108.629 299.323 108.169 299.04 107.792C298.756 107.414 298.357 107.139 297.904 107.008C297.479 106.877 297.025 106.877 296.6 107.008V107.026Z" fill="#263238"/>
<path d="M296.374 115.344V122.181L299.947 119.976V117.771H299.651C299.102 117.778 298.558 117.653 298.066 117.406C297.575 117.159 297.15 116.797 296.826 116.351C296.61 116.049 296.457 115.706 296.374 115.344Z" fill="#E0E0E0"/>
<path d="M300.546 109.431L301.037 110.904L299.716 111.279L300.02 112.978H301.941V116.643L301.072 117.061V118.499H303.936V113.784L304.501 112.904V111.279H303.223L301.072 106.634L298.977 108.154L299.186 109.579L300.546 109.431Z" fill="#E0E0E0"/>
<path d="M302.355 155.642C302.96 155.638 303.557 155.489 304.093 155.206C305.935 154.239 306.991 151.881 306.991 148.735V148.67C306.69 145.228 306.158 141.81 305.401 138.439C304.788 135.462 304.097 132.09 303.371 126.617C303.024 124.002 303.371 118.621 303.371 118.569L301.868 118.468C301.868 118.695 301.507 124.05 301.868 126.813C302.594 132.343 303.298 135.746 303.915 138.744C304.658 142.046 305.18 145.394 305.479 148.766C305.479 151.276 304.688 153.184 303.384 153.864C302.962 154.074 302.488 154.157 302.019 154.106C301.55 154.054 301.105 153.869 300.738 153.572C299 152.361 297.427 149.04 298.157 143.35C299.921 135.48 301.003 129.445 300.951 123.741C300.807 113.096 299.347 110.546 299.182 110.294L297.922 111.117C297.922 111.117 299.308 113.592 299.447 123.754C299.495 129.34 298.422 135.288 296.679 143.071V143.14C295.979 148.557 297.179 152.927 299.891 154.827C300.609 155.347 301.469 155.631 302.355 155.642Z" fill="#263238"/>
<path d="M282.62 140.238L282.65 140.169C282.733 139.911 282.852 139.666 283.002 139.441L284.789 135.768C284.831 135.689 284.894 135.624 284.971 135.579C285.047 135.533 285.135 135.509 285.223 135.509C285.312 135.509 285.4 135.533 285.476 135.579C285.553 135.624 285.615 135.689 285.658 135.768L287.684 139.868C287.878 140.271 287.971 140.715 287.955 141.162C287.939 141.609 287.814 142.045 287.591 142.433C287.368 142.82 287.053 143.147 286.675 143.385C286.297 143.622 285.867 143.764 285.422 143.796C284.977 143.829 284.53 143.751 284.122 143.571C283.713 143.391 283.355 143.113 283.078 142.763C282.802 142.412 282.615 141.998 282.534 141.558C282.453 141.118 282.481 140.665 282.616 140.238H282.62Z" fill="#FFC269"/>
<path d="M282.547 105.662H287.892C288.087 105.662 288.244 105.82 288.244 106.015V106.281C288.244 106.475 288.087 106.633 287.892 106.633H282.547C282.353 106.633 282.195 106.475 282.195 106.281V106.015C282.195 105.82 282.353 105.662 282.547 105.662Z" fill="#455A64"/>
<path d="M286.366 107.492H287.892C288.087 107.492 288.244 107.65 288.244 107.845V108.111C288.244 108.306 288.087 108.464 287.892 108.464H286.366C286.172 108.464 286.014 108.306 286.014 108.111V107.845C286.014 107.65 286.172 107.492 286.366 107.492Z" fill="#455A64"/>
<path d="M286.692 120.604C286.692 120.784 286.746 120.96 286.846 121.11C286.946 121.26 287.088 121.377 287.254 121.445C287.42 121.514 287.603 121.532 287.78 121.496C287.956 121.461 288.118 121.374 288.245 121.246C288.372 121.118 288.458 120.955 288.492 120.779C288.527 120.602 288.508 120.418 288.439 120.252C288.369 120.086 288.252 119.944 288.102 119.844C287.952 119.745 287.776 119.692 287.596 119.693C287.477 119.693 287.359 119.716 287.25 119.762C287.14 119.808 287.04 119.875 286.956 119.96C286.872 120.044 286.805 120.145 286.76 120.255C286.715 120.366 286.692 120.484 286.692 120.604Z" fill="#FFC269"/>
<path d="M281.921 120.604C281.921 120.784 281.974 120.96 282.074 121.11C282.174 121.26 282.316 121.377 282.483 121.445C282.649 121.514 282.832 121.532 283.008 121.496C283.185 121.461 283.346 121.374 283.473 121.246C283.6 121.118 283.686 120.955 283.721 120.779C283.755 120.602 283.737 120.418 283.667 120.252C283.598 120.086 283.481 119.944 283.331 119.844C283.181 119.745 283.005 119.692 282.825 119.693C282.706 119.693 282.588 119.716 282.478 119.762C282.368 119.808 282.268 119.875 282.184 119.96C282.1 120.044 282.034 120.145 281.989 120.255C281.943 120.366 281.92 120.484 281.921 120.604Z" fill="#455A64"/>
<path d="M296.714 171.107C296.714 171.107 296.714 170.937 296.714 170.601C296.714 170.266 296.714 169.751 296.714 169.093C296.714 167.764 296.714 165.808 296.714 163.289C296.714 158.235 296.736 150.932 296.749 141.907C296.762 132.883 296.77 122.103 296.783 110.15C296.783 107.167 296.783 104.108 296.783 100.973V96.2279C296.806 95.8197 296.771 95.4104 296.679 95.0122C296.522 94.4081 296.186 93.8658 295.716 93.4561C295.246 93.0464 294.664 92.7884 294.046 92.7158C290.786 92.6853 287.501 92.7158 284.151 92.7158H277.81C277.375 92.7033 276.94 92.715 276.506 92.7506C275.811 92.8462 275.168 93.1767 274.684 93.6876C274.201 94.1985 273.906 94.8594 273.847 95.5612C273.821 96.0667 273.847 96.5373 273.847 97.0253V105.644C273.847 109.421 273.847 113.133 273.847 116.782C273.847 124.063 273.847 131.031 273.847 137.585C273.847 150.692 273.847 162.143 273.877 171.137V171.176H273.947L290.73 171.137H295.18H296.323H296.705H296.31H295.154H290.686L273.947 171.098L274.021 171.168C274.021 162.187 274.021 150.735 274.051 137.615C274.051 131.079 274.051 124.107 274.051 116.813C274.051 113.173 274.051 109.46 274.051 105.675V97.0079C274.051 96.5286 274.051 96.0318 274.051 95.5655C274.086 95.1005 274.236 94.6515 274.486 94.2583C274.707 93.9071 275.003 93.6083 275.351 93.3826C275.699 93.1569 276.092 93.0096 276.502 92.9511C276.906 92.9031 277.341 92.9293 277.767 92.9206H284.137C287.479 92.9206 290.795 92.9206 294.011 92.9206C294.401 92.9626 294.779 93.0844 295.12 93.2785C295.462 93.4727 295.76 93.7349 295.997 94.0491C296.233 94.3564 296.405 94.7074 296.505 95.0819C296.591 95.4618 296.625 95.8518 296.605 96.241V100.973C296.605 104.096 296.605 107.146 296.605 110.124C296.605 122.055 296.631 132.804 296.64 141.829C296.649 150.853 296.666 158.174 296.675 163.233C296.675 165.76 296.675 167.725 296.675 169.063C296.675 169.73 296.675 170.235 296.675 170.584C296.675 170.932 296.714 171.107 296.714 171.107Z" fill="#263238"/>
<path d="M141.424 51.0366C139.107 53.3338 137.459 56.22 136.655 59.3855C135.851 62.5511 135.922 65.8764 136.86 69.0046C137.798 72.1329 139.568 74.9459 141.979 77.1419C144.391 79.3378 147.354 80.8338 150.549 81.4691L153.852 86.2057L157.003 81.5781C160.39 81.0191 163.545 79.4926 166.09 77.1814C167.862 75.5735 169.297 73.6267 170.309 71.4553C171.321 69.284 171.89 66.9318 171.983 64.5368C172.076 62.1419 171.691 59.7524 170.851 57.5086C170.011 55.2648 168.732 53.212 167.089 51.4706C165.447 49.7291 163.474 48.3342 161.287 47.3677C159.1 46.4011 156.742 45.8824 154.352 45.8419C151.962 45.8015 149.588 46.2402 147.369 47.1322C145.151 48.0243 143.132 49.3517 141.432 51.0366H141.424Z" fill="#FFF8F7"/>
<path d="M141.423 51.0366C141.423 51.0366 141.493 50.9625 141.641 50.8275L142.301 50.2218L142.788 49.786C142.975 49.6335 143.196 49.481 143.427 49.3111L144.174 48.7664C144.464 48.5677 144.764 48.3845 145.074 48.2173C146.636 47.284 148.338 46.61 150.115 46.2216C152.464 45.6841 154.897 45.6277 157.268 46.056C160.155 46.5579 162.872 47.7774 165.168 49.603L166.094 50.3525L166.963 51.2022L167.397 51.6379C167.537 51.7861 167.658 51.9517 167.793 52.1129L168.584 53.0803C170.19 55.2845 171.282 57.8228 171.777 60.5073C172.273 63.1917 172.16 65.9536 171.448 68.5885C170.951 70.4919 170.135 72.2969 169.036 73.9264L168.627 74.5495L168.158 75.1378C167.853 75.5382 167.523 75.9195 167.171 76.2794C166.815 76.6367 166.463 77.0028 166.094 77.3513C165.724 77.6999 165.325 78.0137 164.912 78.3187C162.595 80.0673 159.89 81.2275 157.029 81.7001L157.103 81.6522L153.952 86.2798C153.944 86.2916 153.933 86.3016 153.921 86.3093C153.909 86.317 153.895 86.3222 153.881 86.3246C153.867 86.3271 153.853 86.3267 153.839 86.3235C153.825 86.3203 153.812 86.3143 153.8 86.3059C153.8 86.3059 153.8 86.3059 153.769 86.2798L150.475 81.5476C150.467 81.5359 150.461 81.5226 150.458 81.5086C150.455 81.4946 150.454 81.4801 150.457 81.4659C150.459 81.4517 150.464 81.4381 150.472 81.426C150.48 81.4138 150.49 81.4033 150.501 81.3951C150.519 81.3908 150.536 81.3908 150.554 81.3951V81.6042C147.851 81.0672 145.307 79.9148 143.118 78.2359C141.235 76.7907 139.655 74.9865 138.469 72.9271C137.283 70.8676 136.515 68.5935 136.209 66.2355C135.969 64.3507 136.019 62.4404 136.356 60.5708C136.84 57.9103 137.923 55.3958 139.524 53.2197L140.285 52.2393L140.906 51.5813L141.284 51.1804L141.419 51.0497C141.419 51.0497 141.38 51.102 141.297 51.1935L140.932 51.6031L140.328 52.2741L139.581 53.2633C138.915 54.1928 138.333 55.1801 137.843 56.2133C137.211 57.6119 136.751 59.0825 136.474 60.5925C136.147 62.4534 136.106 64.3534 136.352 66.2267C136.663 68.5531 137.427 70.7954 138.602 72.8253C139.778 74.8552 141.34 76.6331 143.201 78.0573C145.365 79.718 147.883 80.8544 150.558 81.3776C150.585 81.3839 150.609 81.4006 150.625 81.4242C150.64 81.4477 150.646 81.4763 150.641 81.504C150.636 81.5269 150.624 81.5477 150.607 81.5634C150.59 81.5791 150.568 81.5888 150.545 81.5912L150.627 81.4212L153.93 86.1534H153.748C154.778 84.6458 155.829 83.1032 156.898 81.5258C156.916 81.5011 156.942 81.484 156.972 81.4779C159.798 81.0117 162.469 79.8649 164.755 78.1357C165.159 77.835 165.546 77.5126 165.92 77.1814C166.294 76.8502 166.633 76.4755 166.985 76.1225C167.334 75.769 167.66 75.392 167.958 74.994L168.423 74.4188L168.827 73.8C169.915 72.1911 170.722 70.4081 171.213 68.5275C172.182 64.962 172.03 61.1837 170.778 57.7079C170.189 56.1046 169.388 54.5877 168.397 53.1979L167.615 52.2393C167.484 52.0824 167.363 51.9168 167.228 51.7687L166.793 51.3329L165.946 50.4614L165.033 49.7207C162.759 47.9109 160.071 46.6992 157.211 46.1955C154.861 45.7636 152.448 45.8081 150.115 46.3262C148.36 46.7136 146.677 47.3784 145.13 48.2958C144.819 48.4591 144.517 48.6395 144.226 48.8361C143.957 49.0235 143.705 49.2021 143.475 49.3721C143.244 49.542 143.04 49.6858 142.831 49.834L142.34 50.2697L141.667 50.8536L141.423 51.0366Z" fill="#263238"/>
<path d="M145.043 64.5099L147.568 61.9782L152.444 66.3182L162.005 57.0934L164.351 59.6251L152.079 71.2073L145.043 64.5099Z" fill="#FFC269"/>
<path d="M58.4275 134.996H252.966V160.566H58.4275V134.996Z" fill="#FFC269"/>
<g opacity="0.4">
<path d="M58.4275 134.996H252.966V160.566H58.4275V134.996Z" fill="#0D0201"/>
</g>
<path d="M47.2114 133.48C52.7304 130.173 67.0755 124.987 71.0561 124.551C73.4679 124.286 84.2018 122.856 84.2018 122.856L87.6783 122.586C87.6783 122.586 124.664 104.851 130.548 102.651C139.674 99.2432 158.913 96.2801 179.329 98.729C179.329 98.729 206.611 101.143 212.673 102.842C218.735 104.542 248.068 113.392 248.068 113.392C248.068 113.392 260.927 114.699 260.727 115.178C260.489 115.882 260.057 116.503 259.48 116.969V124.9C259.48 124.9 260.906 126.774 261.262 127.671C261.618 128.569 262.422 135.624 262.422 135.624C262.422 135.624 266.264 144.474 266.264 146.801C266.264 149.127 259.311 158.065 257.607 159.407C255.904 160.749 242.232 162.701 242.232 162.701V156.008C241.871 145.816 233.671 137.667 223.602 137.667C213.533 137.667 205.329 145.816 204.968 156.008L204.929 164.679H98.2253L98.2991 158.243C98.3382 157.733 98.3643 157.224 98.3643 156.705C98.3643 146.191 90.0163 137.667 79.717 137.667C69.4178 137.667 61.0654 146.191 61.0654 156.705C61.0654 157.224 61.0915 157.733 61.1306 158.243H60.7525V164.679H48.4499C48.4499 164.679 38.4548 157.272 38.733 153.507V142.931C38.7305 141.526 39.2601 140.173 40.2148 139.145C42.2704 136.936 44.6257 135.03 47.2114 133.48Z" fill="#FFC269"/>
<g opacity="0.2">
<path d="M38.733 145.994L46.6073 143.18L47.5417 147.472L60.1137 146.801C60.1137 146.801 65.6501 136.203 76.9662 135.271C86.6527 134.469 94.3489 139.301 94.3489 139.301L149.717 133.794C149.717 133.794 177.799 132.722 188.633 132.857C199.466 132.992 209.014 140.883 209.014 140.883C209.014 140.883 212.208 136.234 223.537 136.129C234.866 136.025 239.594 142.692 239.594 142.692C247.623 141.62 255.234 138.466 261.675 133.541L262.231 133.977C262.344 134.927 262.422 135.598 262.422 135.598C262.422 135.598 266.264 144.448 266.264 146.774C266.264 149.101 259.311 158.039 257.607 159.381C255.904 160.723 242.232 162.675 242.232 162.675V155.982C241.871 145.79 233.671 137.641 223.602 137.641C213.533 137.641 205.329 145.79 204.968 155.982L204.929 164.653H98.2253L98.2991 158.217C98.3382 157.707 98.3643 157.198 98.3643 156.679C98.3643 146.164 90.0163 137.641 79.717 137.641C69.4178 137.641 61.0654 146.164 61.0654 156.679C61.0654 157.198 61.0915 157.707 61.1306 158.217H60.7525V164.653H48.4499C48.4499 164.653 38.4548 157.245 38.733 153.481V145.994Z" fill="#0D0201"/>
</g>
<path d="M228.635 113.945C228.839 114.1 228.994 114.311 229.079 114.553C229.165 114.795 229.177 115.057 229.115 115.307C229.053 115.556 228.919 115.781 228.73 115.954C228.541 116.128 228.305 116.241 228.052 116.281L218.67 117.536L165.366 123.427L100.376 127.044C99.8619 127.082 99.3464 126.986 98.8802 126.764C98.4141 126.543 98.0132 126.204 97.7168 125.78C97.1649 124.952 96.9563 123.793 98.3209 122.482C101.046 119.867 113.096 113.056 115.947 111.719C131.99 103.032 150.128 98.9941 168.33 100.058C177.312 100.367 194.547 102.943 216.823 105.867C217.293 105.934 217.74 106.114 218.127 106.389L228.635 113.945Z" fill="#263238"/>
<path d="M217.562 116.573C217.431 116.172 212.634 107.087 211.699 106.551C210.765 106.015 171.984 101.073 171.45 101.758C170.915 102.442 169.573 121.501 169.573 121.501L217.562 116.573Z" fill="#455A64"/>
<path d="M202.773 105.161L203.108 118.499H201.109V104.938L202.773 105.161Z" fill="#263238"/>
<path d="M109.572 115.174C109.572 115.174 109.537 115.239 109.476 115.375C109.415 115.51 109.32 115.714 109.202 115.98C109.085 116.246 108.92 116.577 108.768 116.978L108.225 118.377C107.138 121.47 106.375 124.668 105.948 127.92C105.29 132.961 105.131 138.055 105.474 143.127C105.648 146.06 105.969 149.175 106.46 152.43C106.712 154.056 106.999 155.72 107.364 157.411C107.444 157.842 107.559 158.266 107.708 158.679C107.882 159.088 108.085 159.484 108.316 159.864C108.776 160.631 109.277 161.373 109.815 162.087L109.846 162.126H109.898L153.95 161.32L177.995 160.766C181.814 160.692 185.534 160.618 189.124 160.592C189.558 160.592 190.019 160.592 190.462 160.592C190.906 160.592 191.331 160.592 191.801 160.592C192.686 160.522 193.548 160.278 194.339 159.873C195.111 159.479 195.823 158.974 196.451 158.374C197.073 157.796 197.623 157.145 198.089 156.435C202.196 150.77 205.911 145.541 209.149 140.857C210.765 138.513 212.273 136.321 213.633 134.264C214.994 132.207 216.241 130.316 217.279 128.56C217.791 127.737 218.251 126.883 218.657 126.002L218.918 125.379C219.005 125.175 219.048 124.944 219.118 124.756C219.187 124.569 219.248 124.351 219.283 124.151C219.318 123.95 219.361 123.745 219.396 123.549C219.621 122.21 219.53 120.837 219.131 119.54C218.89 118.737 218.536 117.973 218.079 117.27C217.925 117.028 217.75 116.799 217.558 116.586L217.692 116.76C217.775 116.874 217.901 117.052 218.053 117.287C218.496 117.993 218.838 118.757 219.07 119.558C219.459 120.847 219.541 122.21 219.309 123.536L219.196 124.129C219.157 124.329 219.079 124.525 219.022 124.73C218.966 124.935 218.909 125.144 218.826 125.344L218.566 125.963C218.154 126.834 217.693 127.681 217.184 128.499C216.132 130.242 214.889 132.142 213.52 134.19C212.152 136.238 210.635 138.426 209.014 140.766C205.759 145.428 202.061 150.657 197.932 156.322C197.012 157.736 195.749 158.892 194.26 159.681C193.49 160.072 192.652 160.309 191.792 160.378C191.357 160.4 190.923 160.4 190.488 160.378C190.054 160.357 189.593 160.378 189.146 160.378C185.552 160.378 181.836 160.474 178.012 160.544L153.967 161.089L109.915 161.921L109.993 161.96C109.459 161.246 108.955 160.509 108.503 159.76C108.28 159.388 108.081 159.002 107.908 158.605C107.762 158.201 107.65 157.786 107.573 157.363C107.208 155.681 106.917 154.021 106.665 152.396C106.165 149.149 105.839 146.042 105.661 143.114C105.31 138.052 105.455 132.967 106.095 127.933C106.51 124.686 107.253 121.49 108.312 118.394L108.842 116.991C108.994 116.586 109.155 116.259 109.276 115.989L109.537 115.379C109.55 115.244 109.572 115.174 109.572 115.174Z" fill="#263238"/>
<path d="M164.545 123.471C164.499 123.594 164.462 123.721 164.436 123.85C164.375 124.098 164.297 124.473 164.219 124.957C164.062 125.92 163.897 127.327 163.784 129.074C163.554 132.56 163.645 137.397 163.714 142.726C163.784 148.056 163.914 152.884 164.014 156.378C164.071 158.121 164.114 159.516 164.145 160.514C164.166 160.984 164.179 161.359 164.192 161.633V161.93C164.188 161.962 164.188 161.994 164.192 162.026C164.197 161.992 164.197 161.959 164.192 161.925C164.192 161.847 164.192 161.751 164.192 161.633C164.192 161.359 164.192 160.984 164.192 160.509C164.192 159.511 164.158 158.104 164.136 156.374C164.075 152.862 163.993 148.047 163.901 142.722C163.81 137.397 163.714 132.569 163.901 129.083C163.988 127.34 164.127 125.937 164.258 124.97C164.323 124.486 164.388 124.098 164.432 123.859L164.484 123.571C164.511 123.542 164.531 123.508 164.545 123.471Z" fill="#263238"/>
<path d="M164.11 101.365L160.134 121.501L117.729 124.551L111.21 115.671C111.21 115.671 127.641 106.298 142.064 103.47C156.722 100.585 164.11 101.365 164.11 101.365Z" fill="#455A64"/>
<g opacity="0.2">
<path d="M197.459 147.929C197.459 147.929 177.647 156.278 174.044 157.08C170.442 157.882 112.396 158.304 112.396 158.304L111.193 155.69L171.776 155.285C171.776 155.285 196.12 146.186 197.459 147.929Z" fill="#0D0201"/>
</g>
<path d="M209.014 140.883L209.118 140.787C209.183 140.722 209.288 140.63 209.422 140.508C209.828 140.167 210.253 139.85 210.696 139.558C211.405 139.108 212.144 138.706 212.908 138.356C213.926 137.911 214.975 137.538 216.045 137.24C217.345 136.89 218.668 136.634 220.004 136.473C220.721 136.364 221.473 136.334 222.246 136.269C222.629 136.238 223.024 136.269 223.42 136.238C223.815 136.208 224.219 136.212 224.628 136.238C228.172 136.394 231.642 137.312 234.801 138.931C236.201 139.627 237.52 140.476 238.734 141.463L238.83 141.541L238.899 141.445C240.789 138.831 242.545 136.356 244.07 134.081C245.596 131.807 246.882 129.724 247.929 128.002C248.977 126.281 249.794 124.852 250.354 123.88L250.984 122.76L251.145 122.469C251.165 122.437 251.181 122.404 251.193 122.368C251.193 122.368 251.167 122.394 251.128 122.46L250.95 122.739C250.793 123.004 250.567 123.371 250.285 123.841L247.808 127.924C246.743 129.667 245.444 131.715 243.897 133.972C242.35 136.229 240.594 138.713 238.721 141.328L238.882 141.306C237.652 140.308 236.317 139.447 234.901 138.739C231.715 137.106 228.212 136.185 224.637 136.042C224.23 136.02 223.822 136.02 223.415 136.042C223.016 136.042 222.62 136.042 222.233 136.073C221.46 136.142 220.704 136.177 219.982 136.29C218.638 136.459 217.307 136.727 216.002 137.092C214.926 137.398 213.874 137.784 212.855 138.247C212.091 138.608 211.353 139.023 210.648 139.489C210.208 139.79 209.788 140.121 209.392 140.478C209.262 140.609 209.162 140.705 209.101 140.779C209.067 140.809 209.037 140.844 209.014 140.883Z" fill="#263238"/>
<path d="M259.714 151.507C259.789 151.3 259.844 151.087 259.88 150.87C259.971 150.456 260.088 149.855 260.232 149.127C260.51 147.642 260.862 145.585 261.197 143.302C261.531 141.018 261.788 138.944 261.944 137.445C262.027 136.696 262.083 136.086 262.114 135.663C262.145 135.447 262.154 135.227 262.14 135.009C262.085 135.221 262.048 135.437 262.027 135.654C261.966 136.116 261.883 136.709 261.788 137.428C261.588 138.922 261.305 140.992 260.971 143.271C260.636 145.55 260.314 147.628 260.071 149.101C259.958 149.812 259.862 150.409 259.793 150.866C259.749 151.077 259.723 151.291 259.714 151.507Z" fill="#263238"/>
<path d="M241.858 153.006C241.933 153.016 242.009 153.016 242.084 153.006H242.736C243.301 153.006 244.123 153.006 245.131 152.953C247.156 152.884 249.946 152.727 253.023 152.422C256.099 152.117 258.867 151.72 260.845 151.389C261.844 151.223 262.648 151.08 263.204 150.953L263.843 150.823C263.917 150.808 263.99 150.788 264.061 150.762C263.986 150.75 263.909 150.75 263.835 150.762L263.187 150.853L260.819 151.206C258.82 151.494 256.038 151.864 252.996 152.169C249.954 152.474 247.138 152.657 245.122 152.766L242.732 152.888L242.08 152.927C242.003 152.943 241.928 152.97 241.858 153.006Z" fill="#263238"/>
<path d="M46.6073 143.18C46.6073 143.18 49.0583 137.489 48.9888 137.297C48.6107 136.277 47.2027 133.48 47.2027 133.48C46.3238 133.981 45.4723 134.53 44.6518 135.123C42.9397 136.346 41.3504 137.734 39.9063 139.267C39.151 140.102 38.7328 141.189 38.7329 142.317V147.084L46.6073 143.18Z" fill="#EBEBEB"/>
<path d="M99.9631 116.813C100.304 117.351 100.685 117.864 101.102 118.346C101.455 118.877 101.849 119.38 102.28 119.85C102.038 119.253 101.7 118.699 101.28 118.211C100.921 117.675 100.476 117.203 99.9631 116.813Z" fill="#263238"/>
<path d="M259.48 116.943C259.48 116.943 240.902 118.468 241.107 118.878C241.311 119.288 259.48 124.9 259.48 124.9V116.943Z" fill="#EBEBEB"/>
<path d="M259.536 125.127C259.648 123.772 259.686 122.411 259.65 121.052C259.686 119.693 259.65 118.333 259.541 116.978C259.423 118.333 259.384 119.693 259.423 121.052C259.386 122.411 259.424 123.772 259.536 125.127Z" fill="#263238"/>
<path d="M60.1136 146.801L60.2136 146.644C60.2788 146.535 60.3701 146.374 60.5004 146.173C60.7525 145.737 61.161 145.162 61.7172 144.408C62.4091 143.489 63.1595 142.616 63.9639 141.794C65.0382 140.681 66.2219 139.679 67.4969 138.805C69.0594 137.708 70.774 136.848 72.5857 136.251C74.7181 135.582 76.9394 135.241 79.1738 135.24C81.7039 135.184 84.2307 135.455 86.6918 136.046C88.0195 136.354 89.318 136.777 90.5725 137.31C91.8876 137.845 93.1336 138.537 94.2837 139.371L94.3228 139.397H94.3619L122.635 136.595L148.909 133.981L149.661 133.903L150.412 133.863L151.903 133.794L154.823 133.663L160.412 133.462C164.019 133.353 167.365 133.284 170.446 133.24C176.578 133.149 181.545 133.14 184.978 133.123L188.928 133.101H184.978C181.545 133.101 176.578 133.075 170.442 133.144C167.374 133.179 164.014 133.236 160.403 133.34C158.598 133.393 156.735 133.455 154.815 133.528L151.894 133.654L150.399 133.724L149.648 133.763L148.891 133.837L122.617 136.452L94.3402 139.275L94.4141 139.297C93.2482 138.453 91.9845 137.753 90.6507 137.214C89.3854 136.681 88.077 136.256 86.7396 135.946C84.2617 135.359 81.7191 135.093 79.1738 135.153C76.922 135.162 74.6846 135.513 72.5379 136.195C70.7155 136.809 68.9935 137.69 67.4274 138.809C66.1495 139.691 64.9656 140.703 63.8944 141.829C63.095 142.658 62.3503 143.539 61.6651 144.465C61.1132 145.228 60.7177 145.829 60.47 146.252C60.2223 146.674 60.1136 146.801 60.1136 146.801Z" fill="#263238"/>
<path d="M112.396 158.304H113.266L115.76 158.274L124.934 158.126L155.193 157.555L171.858 157.232H172.814C173.132 157.236 173.45 157.22 173.766 157.184C174.379 157.067 174.975 156.872 175.539 156.605C176.66 156.147 177.76 155.733 178.82 155.298C180.945 154.483 182.94 153.746 184.756 153.075C188.389 151.738 191.327 150.635 193.339 149.825C194.347 149.424 195.125 149.106 195.647 148.879C195.903 148.77 196.103 148.687 196.242 148.622L196.446 148.531L196.233 148.605L195.629 148.84L193.309 149.746C191.288 150.526 188.341 151.607 184.7 152.923C182.879 153.585 180.884 154.313 178.755 155.102C177.69 155.511 176.582 155.934 175.461 156.409C174.908 156.672 174.324 156.863 173.723 156.975C173.414 157.008 173.103 157.022 172.793 157.019H171.837L155.175 157.341L124.916 157.982L115.743 158.204L113.253 158.274L112.601 158.3C112.533 158.297 112.464 158.299 112.396 158.304Z" fill="#263238"/>
<path d="M117.303 115.514C118.102 117.157 118.98 119.588 118.815 122.107C118.766 122.898 118.419 123.641 117.845 124.186C117.27 124.731 116.512 125.038 115.721 125.044L108.086 125.1C107.538 125.116 107.004 124.931 106.583 124.581C106.162 124.23 105.882 123.738 105.795 123.196C105.742 122.798 105.809 122.393 105.987 122.033C106.782 120.412 107.442 120.726 107.442 120.726C107.442 120.726 109.754 115.932 113.27 114.124C113.626 113.949 114.012 113.845 114.408 113.82C114.803 113.795 115.2 113.849 115.575 113.978C115.949 114.107 116.295 114.31 116.592 114.573C116.888 114.837 117.13 115.156 117.303 115.514Z" fill="#FFC269"/>
<path d="M109.398 125.092C109.398 125.122 109.094 125.039 108.702 124.756C108.174 124.393 107.784 123.862 107.594 123.248C107.455 122.642 107.402 122.018 107.438 121.397C107.415 121.14 107.438 120.882 107.507 120.634C107.588 120.878 107.628 121.135 107.625 121.392C107.646 121.992 107.72 122.588 107.846 123.174C108.028 123.735 108.366 124.233 108.82 124.608C109.163 124.913 109.415 125.057 109.398 125.092Z" fill="#263238"/>
<path d="M108.819 119.706C108.908 119.354 109.055 119.02 109.254 118.717C109.681 117.954 110.212 117.254 110.831 116.638C111.45 116.023 112.151 115.497 112.913 115.074C113.216 114.873 113.552 114.725 113.904 114.638C113.948 114.712 112.431 115.388 111.018 116.817C109.606 118.246 108.893 119.758 108.819 119.706Z" fill="#FFF8F7"/>
<path d="M167.773 100.028C167.741 100.103 167.719 100.182 167.708 100.263C167.669 100.442 167.621 100.664 167.565 100.938C167.447 101.527 167.287 102.376 167.1 103.431C166.722 105.54 166.23 108.459 165.744 111.71C165.257 114.961 164.9 117.889 164.714 120.024C164.661 120.556 164.627 121.039 164.605 121.466C164.583 121.893 164.553 122.259 164.548 122.56C164.544 122.861 164.548 123.065 164.548 123.248C164.542 123.328 164.542 123.408 164.548 123.488C164.572 123.41 164.583 123.33 164.583 123.248C164.583 123.065 164.614 122.839 164.635 122.564C164.657 122.29 164.687 121.898 164.727 121.475C164.766 121.052 164.805 120.569 164.866 120.037C165.096 117.911 165.487 114.978 165.965 111.758C166.443 108.538 166.917 105.605 167.269 103.479C167.434 102.446 167.569 101.596 167.665 100.973C167.704 100.699 167.739 100.472 167.765 100.293C167.777 100.205 167.78 100.116 167.773 100.028Z" fill="#455A64"/>
<g opacity="0.2">
<path d="M259.48 124.9L250.293 119.436L250.028 117.771C246.46 118.128 242.132 118.464 241.107 118.878C241.107 119.157 252.405 122.747 259.48 124.9Z" fill="#0D0201"/>
</g>
<g opacity="0.2">
<path d="M48.9887 137.297L44.0781 141.476L38.7329 142.321V147.088L46.6116 143.166C47.5764 140.914 48.4629 138.792 48.9887 137.297Z" fill="#0D0201"/>
</g>
<path d="M49.0409 137.297C49.085 137.29 49.1276 137.275 49.1669 137.253L49.5232 137.11L50.8834 136.526L55.9027 134.382C58.0147 133.484 60.5352 132.417 63.3598 131.301C64.7765 130.756 66.2628 130.168 67.8402 129.715C68.6311 129.515 69.4612 129.393 70.3043 129.249L72.8639 128.839C79.8169 127.78 86.0791 126.883 90.6246 126.225L95.9872 125.423L97.4517 125.196L97.8297 125.131C97.8746 125.128 97.9186 125.118 97.9601 125.1H97.8254L97.443 125.144L95.9785 125.327L90.5855 126.05C86.0312 126.678 79.7474 127.545 72.8117 128.608L70.2478 129.013C69.409 129.162 68.5747 129.284 67.7664 129.488C66.1628 129.955 64.6853 130.547 63.2643 131.096C60.4439 132.225 57.9278 133.306 55.8201 134.225C53.7125 135.144 52.0177 135.903 50.8487 136.434L49.5059 137.057L49.1582 137.223C49.1164 137.243 49.0771 137.268 49.0409 137.297Z" fill="#263238"/>
<path d="M223.56 174.794C213.963 174.694 206.264 166.811 206.365 157.187C206.465 147.564 214.327 139.845 223.924 139.945C233.521 140.046 241.22 147.929 241.119 157.552C241.019 167.176 233.157 174.895 223.56 174.794Z" fill="#263238"/>
<path d="M241.102 157.067V157.115C241.135 159.404 240.718 161.677 239.875 163.804C239.031 165.931 237.779 167.871 236.188 169.513C232.975 172.829 228.58 174.729 223.969 174.795C219.359 174.862 214.912 173.089 211.605 169.867C208.298 166.645 206.403 162.239 206.337 157.616V157.572L241.102 157.067Z" fill="#263238"/>
<path d="M235.927 157.189C235.962 159.609 235.28 161.985 233.968 164.016C232.657 166.047 230.774 167.643 228.558 168.602C226.341 169.56 223.891 169.838 221.518 169.4C219.144 168.962 216.953 167.828 215.222 166.142C213.491 164.456 212.297 162.292 211.793 159.926C211.288 157.559 211.494 155.096 212.385 152.847C213.277 150.598 214.813 148.665 216.801 147.291C218.788 145.918 221.137 145.166 223.55 145.132C226.786 145.085 229.907 146.329 232.228 148.59C234.549 150.851 235.88 153.944 235.927 157.189Z" fill="#FAFAFA"/>
<path d="M223.55 145.132C225.153 145.108 226.744 145.401 228.233 145.994C229.722 146.588 231.08 147.469 232.23 148.589C233.379 149.709 234.297 151.045 234.932 152.52C235.566 153.996 235.904 155.582 235.927 157.189L211.526 157.542C211.479 154.297 212.72 151.167 214.975 148.84C217.23 146.513 220.314 145.179 223.55 145.132Z" fill="#E0E0E0"/>
<path d="M231.159 157.258C231.181 158.733 230.766 160.181 229.966 161.419C229.167 162.657 228.019 163.629 226.669 164.213C225.318 164.797 223.826 164.966 222.379 164.699C220.933 164.432 219.598 163.741 218.543 162.714C217.488 161.686 216.761 160.368 216.454 158.925C216.146 157.483 216.272 155.982 216.815 154.612C217.359 153.241 218.295 152.064 219.507 151.227C220.718 150.39 222.149 149.933 223.62 149.912C225.591 149.885 227.492 150.644 228.905 152.021C230.319 153.399 231.13 155.282 231.159 157.258Z" fill="#263238"/>
<path d="M79.6839 174.787C70.0868 174.668 62.4033 166.77 62.5222 157.147C62.6411 147.524 70.5175 139.82 80.1146 139.939C89.7116 140.058 97.3952 147.956 97.2763 157.579C97.1573 167.202 89.2809 174.906 79.6839 174.787Z" fill="#263238"/>
<path d="M97.2736 157.067C97.2757 157.083 97.2757 157.099 97.2736 157.115C97.3398 161.737 95.572 166.197 92.359 169.513C89.146 172.829 84.7509 174.729 80.1407 174.795C75.5306 174.862 71.0829 173.089 67.7761 169.867C64.4694 166.645 62.5744 162.239 62.5082 157.616V157.572L97.2736 157.067Z" fill="#263238"/>
<path d="M92.1022 157.189C92.1372 159.609 91.4558 161.985 90.1441 164.016C88.8324 166.047 86.9493 167.643 84.7331 168.602C82.5169 169.56 80.067 169.838 77.6933 169.4C75.3196 168.962 73.1287 167.828 71.3976 166.142C69.6666 164.456 68.4731 162.292 67.9682 159.926C67.4633 157.559 67.6696 155.096 68.561 152.847C69.4525 150.598 70.989 148.665 72.9763 147.291C74.9636 145.918 77.3124 145.166 79.7257 145.132C82.9611 145.086 86.0821 146.331 88.4028 148.592C90.7235 150.852 92.0541 153.945 92.1022 157.189Z" fill="#FAFAFA"/>
<path d="M79.7258 145.132C82.9615 145.085 86.0831 146.329 88.4041 148.59C90.7251 150.851 92.0553 153.944 92.1023 157.189L67.7013 157.542C67.6778 155.935 67.9701 154.34 68.5617 152.846C69.1533 151.353 70.0326 149.991 71.1493 148.839C72.2659 147.686 73.5981 146.766 75.0697 146.13C76.5413 145.493 78.1235 145.154 79.7258 145.132Z" fill="#E0E0E0"/>
<path d="M87.3307 157.259C87.3512 158.732 86.9353 160.179 86.1355 161.416C85.3358 162.653 84.1882 163.624 82.8379 164.207C81.4876 164.79 79.9952 164.958 78.5497 164.69C77.1041 164.422 75.7703 163.73 74.7169 162.702C73.6635 161.674 72.9379 160.355 72.632 158.913C72.326 157.472 72.4533 155.971 72.9979 154.602C73.5424 153.233 74.4798 152.057 75.6913 151.222C76.9028 150.387 78.334 149.931 79.804 149.912C81.7734 149.886 83.6724 150.646 85.0837 152.023C86.495 153.401 87.3032 155.284 87.3307 157.259Z" fill="#263238"/>
<path d="M145.537 118.137C145.563 118.081 142.343 116.394 138.345 114.368C134.346 112.342 131.079 110.743 131.052 110.799C131.026 110.856 134.242 112.542 138.24 114.568C142.238 116.595 145.506 118.194 145.537 118.137Z" fill="#FFF8F7"/>
<path d="M150.017 117.693C150.047 117.64 146.975 115.971 143.19 113.967C139.405 111.963 136.285 110.385 136.237 110.438C136.189 110.49 139.279 112.181 143.068 114.168C146.858 116.155 149.991 117.749 150.017 117.693Z" fill="#FFF8F7"/>
<path d="M194.825 116.948C194.622 116.838 194.412 116.743 194.195 116.664L192.457 115.972L186.708 113.658L181.002 111.3L179.263 110.586C179.056 110.487 178.841 110.407 178.62 110.346C178.812 110.472 179.016 110.579 179.229 110.664C179.628 110.856 180.211 111.122 180.932 111.449C182.375 112.093 184.378 112.956 186.616 113.867C188.854 114.778 190.892 115.558 192.374 116.102C193.117 116.377 193.721 116.59 194.139 116.73C194.361 116.823 194.59 116.896 194.825 116.948Z" fill="#FFF8F7"/>
<path d="M190.684 112.167C189.477 111.501 188.235 110.9 186.964 110.368C185.722 109.768 184.448 109.237 183.148 108.777C184.355 109.445 185.596 110.046 186.868 110.577C188.111 111.175 189.385 111.706 190.684 112.167Z" fill="#FFF8F7"/>
<path d="M38.7287 147.088C38.7641 146.861 38.7787 146.63 38.7721 146.4C38.7721 145.92 38.7721 145.289 38.8112 144.53C38.8503 143.772 38.8113 142.787 38.8591 141.768C38.9069 140.748 39.7021 139.816 40.4409 138.892C41.1781 138.043 42.0026 137.275 42.9005 136.6C43.7175 135.959 44.478 135.41 45.1212 134.953L46.6508 133.885C46.8456 133.765 47.0301 133.63 47.2027 133.48C46.9934 133.572 46.7928 133.683 46.603 133.811C46.2249 134.042 45.6861 134.382 45.0299 134.822C44.3737 135.262 43.6002 135.798 42.7745 136.434C41.8535 137.107 41.0123 137.884 40.2671 138.748C39.8853 139.199 39.5354 139.677 39.2197 140.177C38.9061 140.646 38.7107 141.185 38.6504 141.746C38.6113 142.809 38.6504 143.737 38.6504 144.53C38.6504 145.323 38.6765 145.92 38.6852 146.4C38.6787 146.63 38.6932 146.861 38.7287 147.088Z" fill="#263238"/>
</svg>
