<svg width="56" height="38" viewBox="0 0 56 38" fill="none" xmlns="http://www.w3.org/2000/svg">
<path d="M6.17604 30.1921C4.08538 30.1921 2.52804 29.5841 1.50404 28.3681C0.501377 27.1521 4.41074e-05 25.1574 4.41074e-05 22.3841C4.41074e-05 20.5281 0.224044 19.0241 0.672044 17.8721C1.12004 16.7201 1.80271 15.8774 2.72004 15.3441C3.63738 14.8107 4.78938 14.5441 6.17604 14.5441C7.58404 14.5441 8.73604 14.8107 9.63204 15.3441C10.5494 15.8774 11.232 16.7201 11.68 17.8721C12.128 19.0241 12.352 20.5281 12.352 22.3841C12.352 25.1574 11.84 27.1521 10.816 28.3681C9.81338 29.5841 8.26671 30.1921 6.17604 30.1921ZM6.17604 27.9521C6.88004 27.9521 7.44538 27.7707 7.87204 27.4081C8.32004 27.0454 8.66138 26.5761 8.89604 26.0001C9.13071 25.4027 9.28004 24.7414 9.34404 24.0161C9.42938 23.2907 9.47204 22.5761 9.47204 21.8721C9.47204 21.1681 9.42938 20.5067 9.34404 19.8881C9.25871 19.2694 9.09871 18.7254 8.86404 18.2561C8.65071 17.7867 8.32004 17.4241 7.87204 17.1681C7.44538 16.9121 6.86938 16.7841 6.14404 16.7841C5.48271 16.7841 4.93871 16.9014 4.51204 17.1361C4.08538 17.3707 3.75471 17.7121 3.52004 18.1601C3.28538 18.5867 3.11471 19.1201 3.00804 19.7601C2.92271 20.4001 2.88004 21.1254 2.88004 21.9361C2.88004 22.6187 2.91204 23.3121 2.97604 24.0161C3.06138 24.7201 3.22138 25.3707 3.45604 25.9681C3.69071 26.5654 4.02138 27.0454 4.44804 27.4081C4.89604 27.7707 5.47204 27.9521 6.17604 27.9521ZM8.54404 12.4641C8.05338 12.4641 7.62671 12.2827 7.26404 11.9201C6.90138 11.5574 6.72004 11.1307 6.72004 10.6401C6.72004 10.1281 6.90138 9.69072 7.26404 9.32805C7.62671 8.96539 8.05338 8.78405 8.54404 8.78405C9.05604 8.78405 9.48271 8.96539 9.82404 9.32805C10.1867 9.69072 10.368 10.1281 10.368 10.6401C10.368 11.1307 10.1867 11.5574 9.82404 11.9201C9.48271 12.2827 9.05604 12.4641 8.54404 12.4641ZM3.87204 12.4641C3.38138 12.4641 2.95471 12.2827 2.59204 11.9201C2.22938 11.5574 2.04804 11.1307 2.04804 10.6401C2.04804 10.1281 2.22938 9.69072 2.59204 9.32805C2.95471 8.96539 3.38138 8.78405 3.87204 8.78405C4.38404 8.78405 4.81071 8.96539 5.15204 9.32805C5.51471 9.69072 5.69604 10.1281 5.69604 10.6401C5.69604 11.1307 5.51471 11.5574 5.15204 11.9201C4.81071 12.2827 4.38404 12.4641 3.87204 12.4641ZM16.5765 12.4001C16.3845 12.4854 16.2032 12.4854 16.0325 12.4001C15.8405 12.3147 15.7019 12.1761 15.6165 11.9841C15.5525 11.7921 15.5739 11.6107 15.6805 11.4401C15.7659 11.2481 15.9045 11.1201 16.0965 11.0561L21.8885 9.04005C22.0805 8.95472 22.2619 8.95472 22.4325 9.04005C22.6245 9.12539 22.7632 9.26405 22.8485 9.45605C22.9125 9.64805 22.8912 9.84005 22.7845 10.0321C22.6992 10.2027 22.5605 10.3201 22.3685 10.3841L16.5765 12.4001ZM16.756 37.2321C16.4787 37.2321 16.2334 37.2001 16.02 37.1361C15.8067 37.0721 15.6147 36.9867 15.444 36.8801C15.2947 36.7734 15.1667 36.6774 15.06 36.5921C15.9134 35.8667 16.5214 35.0987 16.884 34.2881C17.268 33.4774 17.5134 32.6774 17.62 31.8881C17.7267 31.1201 17.78 30.4587 17.78 29.9041V15.9521C17.78 15.4187 17.9187 15.0561 18.196 14.8641C18.4734 14.6507 18.8147 14.5441 19.22 14.5441C19.6254 14.5441 19.9667 14.6507 20.244 14.8641C20.5214 15.0561 20.66 15.4187 20.66 15.9521V29.9041C20.66 30.6507 20.596 31.4507 20.468 32.3041C20.34 33.1574 20.1267 33.9574 19.828 34.7041C19.5294 35.4507 19.124 36.0587 18.612 36.5281C18.1214 36.9974 17.5027 37.2321 16.756 37.2321ZM29.3263 12.1441C28.473 12.1441 27.7583 11.8454 27.1823 11.2481C26.585 10.6507 26.2863 9.93605 26.2863 9.10405C26.2863 8.25072 26.585 7.53605 27.1823 6.96005C27.7583 6.36272 28.473 6.06405 29.3263 6.06405C30.1796 6.06405 30.8943 6.36272 31.4703 6.96005C32.0676 7.53605 32.3663 8.25072 32.3663 9.10405C32.3663 9.93605 32.0676 10.6507 31.4703 11.2481C30.8943 11.8454 30.1796 12.1441 29.3263 12.1441ZM29.3263 10.6721C29.7743 10.6721 30.1476 10.5227 30.4463 10.2241C30.7663 9.90405 30.9263 9.53072 30.9263 9.10405C30.9263 8.65605 30.7663 8.28272 30.4463 7.98405C30.1476 7.68538 29.7743 7.53605 29.3263 7.53605C28.8783 7.53605 28.505 7.68538 28.2063 7.98405C27.8863 8.28272 27.7263 8.65605 27.7263 9.10405C27.7263 9.53072 27.8863 9.90405 28.2063 10.2241C28.505 10.5227 28.8783 10.6721 29.3263 10.6721ZM38.8435 29.9041C37.7342 29.9041 36.7422 29.6481 35.8675 29.1361C35.0142 28.6027 34.3422 27.8881 33.8515 26.9921C33.3609 26.0747 33.1155 25.0401 33.1155 23.8881V22.2561H35.9955V23.8881C35.9955 24.4854 36.0915 25.0721 36.2835 25.6481C36.4969 26.2241 36.8169 26.7041 37.2435 27.0881C37.6702 27.4721 38.2035 27.6641 38.8435 27.6641H39.9955V29.9041H38.8435ZM24.7955 29.9041C24.3902 29.9041 24.1022 29.7974 23.9315 29.5841C23.7822 29.3494 23.7075 29.0827 23.7075 28.7841C23.7075 28.4854 23.7822 28.2294 23.9315 28.0161C24.1022 27.7814 24.3902 27.6641 24.7955 27.6641H29.0835C30.4062 27.6641 31.4089 27.1734 32.0915 26.1921C32.7742 25.1894 33.1155 23.8241 33.1155 22.0961C33.1155 20.8161 32.9342 19.7601 32.5715 18.9281C32.2089 18.0961 31.6649 17.5094 30.9395 17.1681C30.2355 16.8054 29.3715 16.7094 28.3475 16.8801L30.2035 16.5281C29.5422 16.6561 28.9449 16.8481 28.4115 17.1041C27.8782 17.3601 27.4622 17.7227 27.1635 18.1921C26.8649 18.6614 26.7155 19.2907 26.7155 20.0801C26.5449 20.1014 26.3102 20.1014 26.0115 20.0801C25.7342 20.0374 25.4782 19.9627 25.2435 19.8561C24.9662 19.7281 24.7209 19.5254 24.5075 19.2481C24.2942 18.9707 24.1875 18.5867 24.1875 18.0961C24.1875 17.5841 24.3049 17.1147 24.5395 16.6881C24.7955 16.2401 25.1475 15.8667 25.5955 15.5681C26.0649 15.2481 26.6089 15.0027 27.2275 14.8321C27.8462 14.6401 28.5289 14.5441 29.2755 14.5441C30.2995 14.5441 31.2169 14.7147 32.0275 15.0561C32.8595 15.3974 33.5742 15.8987 34.1715 16.5601C34.7689 17.2214 35.2169 18.0214 35.5155 18.9601C35.8355 19.8987 35.9955 20.9761 35.9955 22.1921C35.9955 23.9627 35.6755 25.4241 35.0355 26.5761C34.3955 27.7067 33.5529 28.5494 32.5075 29.1041C31.4622 29.6374 30.3209 29.9041 29.0835 29.9041H24.7955ZM39.9955 29.9041V27.6641C40.2515 27.6641 40.4222 27.7601 40.5075 27.9521C40.5929 28.1441 40.6355 28.4214 40.6355 28.7841C40.6355 29.1254 40.5929 29.4027 40.5075 29.6161C40.4222 29.8081 40.2515 29.9041 39.9955 29.9041ZM47.0095 6.08005C46.7962 6.08005 46.6255 6.01605 46.4975 5.88805C46.3482 5.73872 46.2735 5.55738 46.2735 5.34405C46.2735 5.15205 46.3482 4.98138 46.4975 4.83205C46.6255 4.68272 46.7962 4.60805 47.0095 4.60805L49.6655 4.48005C49.3242 4.26672 49.0469 3.97872 48.8335 3.61605C48.6202 3.23205 48.5135 2.83739 48.5135 2.43205C48.5135 1.74939 48.7589 1.17339 49.2495 0.704052C49.7189 0.234718 50.2842 5.14984e-05 50.9455 5.14984e-05C51.5642 5.14984e-05 52.1295 0.224052 52.6415 0.672052C53.1535 1.09872 53.4095 1.74939 53.4095 2.62405C53.4095 3.26405 53.2389 3.80805 52.8975 4.25605C52.5775 4.70405 52.1189 5.06672 51.5215 5.34405C50.9242 5.60005 50.2415 5.79205 49.4735 5.92005C48.7055 6.02672 47.8842 6.08005 47.0095 6.08005ZM50.9455 3.42405C51.2229 3.42405 51.4575 3.32805 51.6495 3.13605C51.8415 2.92272 51.9375 2.68805 51.9375 2.43205C51.9375 2.15472 51.8415 1.92005 51.6495 1.72805C51.4575 1.53605 51.2229 1.44005 50.9455 1.44005C50.6682 1.44005 50.4335 1.53605 50.2415 1.72805C50.0709 1.92005 49.9855 2.15472 49.9855 2.43205C49.9855 2.68805 50.0709 2.92272 50.2415 3.13605C50.4335 3.32805 50.6682 3.42405 50.9455 3.42405ZM39.9825 29.9041V27.6641H49.0385C50.0412 27.6641 50.8412 27.3227 51.4385 26.6401C52.0359 25.9574 52.3345 25.0401 52.3345 23.8881V18.0961C52.3345 17.6907 52.1212 17.3707 51.6945 17.1361C51.2892 16.9014 50.6279 16.7841 49.7105 16.7841C48.3025 16.7841 47.2252 17.2427 46.4785 18.1601C45.7319 19.0561 45.3585 20.4001 45.3585 22.1921C45.3585 23.9627 45.7532 25.3174 46.5425 26.2561C47.3319 27.1947 48.4625 27.6641 49.9345 27.6641L48.9745 29.8721C47.7799 29.7441 46.6919 29.3921 45.7105 28.8161C44.7292 28.2187 43.9399 27.3761 43.3425 26.2881C42.7665 25.1787 42.4785 23.8134 42.4785 22.1921C42.4785 19.7814 43.1292 17.9041 44.4305 16.5601C45.7532 15.2161 47.5132 14.5441 49.7105 14.5441C51.3319 14.5441 52.6545 14.8854 53.6785 15.5681C54.7025 16.2294 55.2145 17.0721 55.2145 18.0961V23.8881C55.2145 25.0401 54.9479 26.0747 54.4145 26.9921C53.9025 27.8881 53.1772 28.6027 52.2385 29.1361C51.3212 29.6481 50.2545 29.9041 49.0385 29.9041H39.9825ZM39.9825 29.9041C39.7265 29.9041 39.5559 29.8081 39.4705 29.6161C39.3852 29.4027 39.3425 29.1254 39.3425 28.7841C39.3425 28.4214 39.3852 28.1441 39.4705 27.9521C39.5559 27.7601 39.7265 27.6641 39.9825 27.6641V29.9041ZM52.1745 12.4641C51.6839 12.4641 51.2572 12.2827 50.8945 11.9201C50.5319 11.5574 50.3505 11.1307 50.3505 10.6401C50.3505 10.1281 50.5319 9.69072 50.8945 9.32805C51.2572 8.96539 51.6839 8.78405 52.1745 8.78405C52.6865 8.78405 53.1132 8.96539 53.4545 9.32805C53.8172 9.69072 53.9985 10.1281 53.9985 10.6401C53.9985 11.1307 53.8172 11.5574 53.4545 11.9201C53.1132 12.2827 52.6865 12.4641 52.1745 12.4641ZM47.5025 12.4641C47.0119 12.4641 46.5852 12.2827 46.2225 11.9201C45.8599 11.5574 45.6785 11.1307 45.6785 10.6401C45.6785 10.1281 45.8599 9.69072 46.2225 9.32805C46.5852 8.96539 47.0119 8.78405 47.5025 8.78405C48.0145 8.78405 48.4412 8.96539 48.7825 9.32805C49.1452 9.69072 49.3265 10.1281 49.3265 10.6401C49.3265 11.1307 49.1452 11.5574 48.7825 11.9201C48.4412 12.2827 48.0145 12.4641 47.5025 12.4641Z" fill="#DD2912"/>
</svg>
