<svg width="16" height="16" viewBox="0 0 16 16" fill="none" xmlns="http://www.w3.org/2000/svg">
<path fill-rule="evenodd" clip-rule="evenodd" d="M2.70784 5.11256C3.65864 2.82947 5.88641 1.3397 8.35956 1.33309C11.025 1.31906 13.3951 3.02638 14.226 5.55907C15.0568 8.09177 14.1587 10.8713 12.0029 12.4389C9.84715 14.0065 6.92617 14.0042 4.77289 12.4331L2.85289 14.3531C2.65768 14.5481 2.34144 14.5481 2.14623 14.3531C1.95126 14.1579 1.95126 13.8416 2.14623 13.6464L4.00623 11.7864C2.26883 10.0263 1.75704 7.39565 2.70784 5.11256ZM3.59927 9.44572C4.39759 11.3695 6.27672 12.6225 8.35956 12.6198V12.5931C11.1864 12.5895 13.4813 10.3066 13.4996 7.47976C13.5023 5.39692 12.2493 3.51779 10.3255 2.71947C8.40174 1.92116 6.18645 2.36106 4.71365 3.83386C3.24086 5.30665 2.80096 7.52194 3.59927 9.44572Z" fill="#0D0201"/>
</svg>
