<svg width="21" height="17" viewBox="0 0 21 17" fill="none" xmlns="http://www.w3.org/2000/svg">
<path fill-rule="evenodd" clip-rule="evenodd" d="M8.47185 9.96L0.551851 5.96C0.279687 5.77357 0.116984 5.4649 0.116984 5.135C0.116984 4.80511 0.279687 4.49644 0.551851 4.31L8.47185 0.310002C8.88546 0.105794 9.34058 -0.000287278 9.80185 5.84289e-07C10.222 0.00226661 10.6373 0.0907597 11.0219 0.260002L19.8119 4.26C20.1302 4.43612 20.3277 4.77121 20.3277 5.135C20.3277 5.49879 20.1302 5.83388 19.8119 6.01L11.0219 10.01C10.6373 10.1792 10.222 10.2677 9.80185 10.27C9.34058 10.2703 8.88546 10.1642 8.47185 9.96ZM9.85185 1.46C9.62643 1.45844 9.40379 1.50981 9.20185 1.61L2.20185 5.1L9.20185 8.58C9.40379 8.68019 9.62643 8.73157 9.85185 8.73C10.0591 8.73227 10.2641 8.68784 10.4519 8.6L18.1618 5.1L10.4519 1.59C10.2641 1.50217 10.0591 1.45773 9.85185 1.46Z" fill="#0D0201"/>
<path d="M19.4919 8.4L10.6419 12.09C10.1006 12.346 9.47312 12.346 8.93185 12.09L1.09185 8.41C0.847124 8.29746 0.560949 8.32403 0.341124 8.4797C0.121299 8.63537 0.0012217 8.89649 0.0261238 9.1647C0.051026 9.43291 0.217124 9.66746 0.461851 9.78L8.28185 13.4C8.76707 13.64 9.30052 13.7665 9.84185 13.77C10.3257 13.7712 10.8038 13.6653 11.2419 13.46L20.0619 9.79C20.2514 9.71491 20.4022 9.56588 20.4796 9.37722C20.5569 9.18857 20.5541 8.97655 20.4719 8.79C20.3032 8.41759 19.8702 8.24527 19.4919 8.4Z" fill="#0D0201"/>
<path d="M19.4919 11.48L10.6419 15.17C10.1006 15.426 9.47312 15.426 8.93185 15.17L1.09185 11.5C0.847069 11.3747 0.553317 11.3933 0.326379 11.5487C0.0994422 11.704 -0.0242791 11.9711 0.00398126 12.2446C0.0322416 12.5182 0.207951 12.7543 0.461851 12.86L8.28185 16.48C8.76231 16.7233 9.2933 16.8501 9.83185 16.85C10.3056 16.8474 10.7731 16.7417 11.2019 16.54L20.0219 12.87C20.2114 12.7949 20.3622 12.6459 20.4396 12.4572C20.5169 12.2686 20.5141 12.0566 20.4319 11.87C20.2613 11.522 19.8587 11.3549 19.4919 11.48Z" fill="#0D0201"/>
</svg>
