<svg width="20" height="20" viewBox="0 0 20 20" fill="none" xmlns="http://www.w3.org/2000/svg">
<path fill-rule="evenodd" clip-rule="evenodd" d="M7.49994 0.220115C8.18023 0.0738721 8.8741 0.000127058 9.56993 0.000115114C12.3518 -0.0134878 15.0031 1.17908 16.8385 3.26958C18.6739 5.36009 19.5134 8.14339 19.1399 10.9001C18.5399 15.5001 13.9999 19.2201 9.35993 19.2201H2.69994C2.13381 19.2204 1.60916 18.9232 1.31819 18.4376C1.02722 17.952 1.0127 17.3492 1.27994 16.8501L1.54994 16.3301C1.81866 15.8293 1.79959 15.2231 1.49994 14.7401C-0.178363 12.1017 -0.466506 8.81127 0.727681 5.92133C1.92187 3.0314 4.44873 0.904165 7.49994 0.220115ZM9.27993 17.7101C13.3566 17.6458 16.8235 14.7184 17.5699 10.7101C17.909 8.38719 17.2106 6.03257 15.6599 4.27011C14.1239 2.51239 11.9042 1.50279 9.56993 1.50012C8.97873 1.50124 8.38913 1.56155 7.80993 1.68012C5.23508 2.25302 3.09972 4.04239 2.08517 6.4773C1.07063 8.91221 1.30366 11.6884 2.70993 13.9201C3.30823 14.86 3.35032 16.0503 2.81993 17.0301L2.54993 17.5401C2.52795 17.5735 2.52795 17.6167 2.54993 17.6501C2.58993 17.7101 2.64993 17.7101 2.64993 17.7101H9.27993Z" fill="#DD2912"/>
</svg>
