<svg width="21" height="21" viewBox="0 0 21 21" fill="none" xmlns="http://www.w3.org/2000/svg">
<path d="M6.65 5.59C6.35449 5.31464 5.89399 5.32277 5.60838 5.60838C5.32277 5.89399 5.31464 6.35449 5.59 6.65L9.37 10.43V15.12C9.37 15.5342 9.70579 15.87 10.12 15.87C10.5342 15.87 10.87 15.5342 10.87 15.12V10.12C10.8698 9.92115 10.7907 9.73052 10.65 9.59L6.65 5.59Z" fill="#0D0201"/>
<path fill-rule="evenodd" clip-rule="evenodd" d="M8 0H12.24C14.3617 0 16.3966 0.842855 17.8969 2.34315C19.3971 3.84344 20.24 5.87827 20.24 8V12.24C20.24 16.6583 16.6583 20.24 12.24 20.24H8C3.58172 20.24 0 16.6583 0 12.24V8C0 3.58172 3.58172 0 8 0ZM12.24 18.74C15.8276 18.7345 18.7345 15.8276 18.74 12.24V8C18.7345 4.41243 15.8276 1.50551 12.24 1.5H8C4.41243 1.50551 1.50551 4.41243 1.5 8V12.24C1.50551 15.8276 4.41243 18.7345 8 18.74H12.24Z" fill="#0D0201"/>
</svg>
