<svg width="44" height="44" viewBox="0 0 44 44" fill="none" xmlns="http://www.w3.org/2000/svg">
<rect width="44" height="44" rx="22" fill="#FFC269"/>
<path d="M22 30.2698C21.8012 30.2696 21.6105 30.1905 21.47 30.0498L14.47 23.0498C14.2824 22.8568 14.212 22.5785 14.2853 22.3196C14.3586 22.0607 14.5645 21.8606 14.8253 21.7946C15.0862 21.7286 15.3624 21.8068 15.55 21.9998L22 28.4498L28.45 21.9998C28.637 21.7991 28.9186 21.7165 29.1843 21.7844C29.45 21.8522 29.6575 22.0597 29.7254 22.3255C29.7932 22.5912 29.7106 22.8728 29.51 23.0598L22.51 30.0598C22.3728 30.192 22.1905 30.2671 22 30.2698Z" fill="#402906"/>
<path d="M22 30.2598C21.588 30.2544 21.2554 29.9217 21.25 29.5098V14.5098C21.25 14.2418 21.3929 13.9942 21.625 13.8602C21.857 13.7263 22.1429 13.7263 22.375 13.8602C22.607 13.9942 22.75 14.2418 22.75 14.5098V29.5098C22.7446 29.9217 22.412 30.2544 22 30.2598Z" fill="#402906"/>
<path d="M22 30.2698C21.8012 30.2696 21.6105 30.1905 21.47 30.0498L14.47 23.0498C14.2824 22.8568 14.212 22.5785 14.2853 22.3196C14.3586 22.0607 14.5645 21.8606 14.8253 21.7946C15.0862 21.7286 15.3624 21.8068 15.55 21.9998L22 28.4498L28.45 21.9998C28.637 21.7991 28.9186 21.7165 29.1843 21.7844C29.45 21.8522 29.6575 22.0597 29.7254 22.3255C29.7932 22.5912 29.7106 22.8728 29.51 23.0598L22.51 30.0598C22.3728 30.192 22.1905 30.2671 22 30.2698Z" fill="#402906"/>
<path d="M22 30.2598C21.588 30.2544 21.2554 29.9217 21.25 29.5098V14.5098C21.25 14.2418 21.3929 13.9942 21.625 13.8602C21.857 13.7263 22.1429 13.7263 22.375 13.8602C22.607 13.9942 22.75 14.2418 22.75 14.5098V29.5098C22.7446 29.9217 22.412 30.2544 22 30.2598Z" fill="#402906"/>
</svg>
